<?xml version="1.0" encoding="UTF-8"?>
<svg id="a" data-name="Layer 1" xmlns="http://www.w3.org/2000/svg" viewBox="0 0 224.44 170.02">
  <defs>
    <style>
      .b {
        fill: #f4001f;
      }

      .c {
        fill: #fff;
      }

      .d {
        fill: #f7a905;
      }

      .e {
        fill: #a1ce02;
      }

      .f {
        fill: #009893;
      }

      .g {
        fill: #009ff3;
      }

      .h {
        fill: #ef248f;
      }
    </style>
  </defs>
  <g>
    <path class="e" d="M29.02,82.91v1.36c0,.66-.25,1.03-.74,1.11-.33.17-.62.25-.86.25-4.45.49-7.58.91-9.39,1.24-2.47.33-6.26.82-11.36,1.48-.41.08-1.11.17-2.1.25-.99.08-1.69.17-2.1.25-1.07.17-1.61-.04-1.61-.62-.25-.49-.37-1.03-.37-1.61-.25-2.72-.37-4.12-.37-4.2-.08-3.46-.12-5.52-.12-6.18,0-1.89.08-3.58.25-5.06.08-.49.12-1.19.12-2.1s.04-1.56.12-1.98c0-1.07.53-1.61,1.61-1.61.66,0,1.15.04,1.48.12,1.07.08,2.67.29,4.82.62,2.06.25,5.17.64,9.32,1.17,4.16.54,7.27.93,9.32,1.17.91.17,1.48.39,1.73.68.25.29.33.84.25,1.67-.17,1.73-.25,3.5-.25,5.31s.08,4.12.25,6.67Z"/>
    <path class="g" d="M40.14,113.17c.16.33.41.74.74,1.24.25.41.2.86-.12,1.36l-.62.62c-.82.66-2.1,1.62-3.83,2.9-1.73,1.28-3.01,2.24-3.83,2.9-1.07.82-2.64,2.02-4.69,3.58-2.06,1.56-3.5,2.67-4.32,3.33-1.48,1.15-2.64,2.02-3.46,2.59-.74.58-1.32.66-1.73.25-.49-.49-.82-.86-.99-1.11-.25-.33-.66-.89-1.24-1.67-.58-.78-.99-1.38-1.24-1.79-2.88-4.69-4.74-7.99-5.56-9.88l-1.85-3.71c-.41-.91-.17-1.65.74-2.22l1.24-.62,4.45-1.85c1.89-.82,4.77-2.04,8.65-3.64,3.87-1.61,6.79-2.82,8.77-3.64.82-.41,1.42-.53,1.79-.37.37.17.72.66,1.05,1.48,1.89,3.87,3.91,7.29,6.05,10.25Z"/>
    <path class="b" d="M34.33,51.42c-.08.17-.21.37-.37.62-.17.25-.29.45-.37.62-.25.41-.62.62-1.11.62-.08,0-.23-.02-.43-.06-.21-.04-.35-.1-.43-.19-.99-.41-2.45-1.03-4.38-1.85-1.94-.82-3.4-1.44-4.38-1.85-3.71-1.56-7.21-3-10.5-4.32-.41-.16-1.07-.45-1.98-.86-.91-.41-1.61-.7-2.1-.86-.82-.33-1.15-.78-.99-1.36l.37-1.48c.41-.91,1.03-2.18,1.85-3.83,2.3-4.45,4.2-7.7,5.68-9.76.58-.74,1.36-1.85,2.35-3.33.49-.91,1.24-1.11,2.22-.62l1.11.74c.49.33,1.15.82,1.98,1.48.82.66,1.48,1.15,1.98,1.48,1.65,1.24,4.14,3.13,7.47,5.68,3.33,2.55,5.82,4.49,7.47,5.8.74.58,1.15,1.03,1.24,1.36.08.33-.17.86-.74,1.61-2.22,3.29-4.2,6.75-5.93,10.37Z"/>
  </g>
  <g>
    <path class="d" d="M195.66,76.02c0-1.81-.08-3.58-.25-5.31-.08-.82,0-1.38.25-1.67.25-.29.82-.51,1.73-.68,2.06-.25,5.17-.64,9.32-1.17,4.16-.53,7.27-.93,9.32-1.17,2.14-.33,3.75-.53,4.82-.62.33-.08.82-.12,1.48-.12,1.07,0,1.61.54,1.61,1.61.08.41.12,1.07.12,1.98s.04,1.61.12,2.1c.17,1.48.25,3.17.25,5.06,0,.66-.04,2.72-.12,6.18,0,.08-.12,1.48-.37,4.2,0,.58-.12,1.11-.37,1.61,0,.58-.53.78-1.61.62-.41-.08-1.11-.16-2.1-.25-.99-.08-1.69-.16-2.1-.25-5.1-.66-8.89-1.15-11.36-1.48-1.81-.33-4.94-.74-9.39-1.24-.25,0-.53-.08-.86-.25-.49-.08-.74-.45-.74-1.11v-1.36c.17-2.55.25-4.77.25-6.67Z"/>
    <path class="h" d="M190.35,102.7c.33-.82.68-1.32,1.05-1.48.37-.16.97-.04,1.79.37,1.98.82,4.9,2.04,8.77,3.64,3.87,1.61,6.75,2.82,8.65,3.64l4.45,1.85,1.24.62c.91.58,1.15,1.32.74,2.22l-1.85,3.71c-.82,1.89-2.67,5.19-5.56,9.88-.25.41-.66,1.01-1.24,1.79-.57.78-.99,1.34-1.24,1.67-.16.25-.49.62-.99,1.11-.41.41-.99.33-1.73-.25-.82-.58-1.98-1.44-3.46-2.59-.82-.66-2.26-1.77-4.32-3.33-2.06-1.57-3.62-2.76-4.69-3.58-.82-.66-2.1-1.63-3.83-2.9-1.73-1.28-3-2.24-3.83-2.9l-.62-.62c-.33-.49-.37-.95-.12-1.36.33-.49.58-.91.74-1.24,2.14-2.96,4.16-6.38,6.05-10.25Z"/>
    <path class="f" d="M184.17,40.82c-.57-.74-.82-1.28-.74-1.61.08-.33.49-.78,1.24-1.36,1.65-1.32,4.14-3.25,7.47-5.8,3.33-2.55,5.83-4.45,7.47-5.68.49-.33,1.15-.82,1.98-1.48.82-.66,1.48-1.15,1.98-1.48l1.11-.74c.99-.49,1.73-.29,2.22.62.99,1.48,1.77,2.59,2.35,3.33,1.48,2.06,3.38,5.31,5.68,9.76.82,1.65,1.44,2.92,1.85,3.83l.37,1.48c.17.58-.16,1.03-.99,1.36-.49.17-1.19.45-2.1.86-.91.41-1.56.7-1.98.86-3.29,1.32-6.79,2.76-10.5,4.32-.99.41-2.45,1.03-4.38,1.85-1.93.82-3.4,1.44-4.38,1.85-.08.08-.23.14-.43.19-.2.04-.35.06-.43.06-.49,0-.86-.2-1.11-.62-.08-.16-.2-.37-.37-.62-.16-.25-.29-.45-.37-.62-1.73-3.62-3.71-7.08-5.93-10.37Z"/>
  </g>
  <g>
    <path class="c" d="M133.08,162.52c-.78,0-2.03,0-3.51-.4-18.07-3.65-29.47-10.8-36.92-23.16-6.49-10.76-9.9-25.75-10.86-48.07l-7.4-.4c-.09,0-.19-.01-.28-.02-5.96-.54-10.63-5.66-10.63-11.66,0-.18,0-.36.02-.54,0,0,2.29-31.72,2.3-31.76.55-6.06,5.56-10.63,11.66-10.63.16,0,.31,0,.47.01l4.63.29c.27-5.08.56-10.32.95-15.81,0-.03,0-.07,0-.1.96-11.54,9.41-12.78,13-12.78h.76c.12,0,.24,0,.36,0l36.01,1.71c7.16.42,11.91,5.57,11.91,12.83,0,.12,0,.24,0,.36-.27,5.58-.62,11.34-1,16.98l5.41.31c6.11.15,11.03,5.34,11.03,11.69,0,.18,0,.36-.02.54,0,0-2.3,31.76-2.3,31.83-.59,5.91-5.44,10.37-11.27,10.37h-.38c-.11,0-.23,0-.34,0l-4.53-.21c.82,14.77,3.96,18.5,5.94,19.36.04.02.72.32.72.32,2.24.99,8.19,3.61,8.19,10.38,0,1.59-.44,2.92-.76,3.89-.06.17-.12.34-.19.5l-9.91,24c-2.85,6.76-7.22,10.16-13.03,10.16Z"/>
    <path d="M97.26,15l36.01,1.71c3.24.19,4.76,2.1,4.76,5.33-.38,8-.95,16.38-1.52,24.38l13.14.76c2.1,0,3.81,1.91,3.81,4.19l-2.29,31.62c-.19,1.91-1.71,3.62-3.81,3.62h-.38l-12.57-.57c0,17.34,2.29,30.48,10.67,34.1,2.1.95,4.38,1.71,4.38,3.81,0,.38-.19.95-.38,1.52l-9.91,24c-1.52,3.62-3.24,5.53-6.1,5.53-.57,0-1.14,0-1.71-.19-30.67-6.1-41.34-22.86-42.29-71.06l-14.29-.76c-2.1-.19-3.81-2.1-3.81-4.19l2.29-31.62c.19-2.1,1.91-3.81,4.19-3.81l12.19.76c.38-7.24.76-15.05,1.33-23.24.19-2.29.57-5.91,5.52-5.91h.76M97.26,0h-.76c-8.69,0-19.26,5.15-20.47,19.66,0,.07-.01.13-.02.2-.21,2.94-.39,5.81-.55,8.62-9.09.92-16.3,8.07-17.14,17.35,0,.09-.02.18-.02.28l-2.29,31.62c-.03.36-.04.72-.04,1.08,0,9.84,7.67,18.24,17.45,19.13.19.02.37.03.56.04l.68.04c2.65,38.25,14.22,63.43,53.2,71.4,2.32.59,4.22.59,5.21.59,5.13,0,14.53-1.91,19.92-14.7.01-.03.03-.07.04-.1l9.91-24c.13-.32.26-.65.37-.99.4-1.21,1.15-3.45,1.15-6.26,0-5.45-2.53-10.55-6.93-13.98-2.07-1.62-4.14-2.55-5.56-3.18-.36-.68-1-2.23-1.54-5.42,8.29-1.36,14.81-8.16,15.68-16.88.01-.14.03-.27.04-.41l2.29-31.62c.03-.36.04-.72.04-1.08,0-9.6-6.94-17.58-15.98-18.97.2-3.23.38-6.47.53-9.65.01-.24.02-.48.02-.71,0-11.3-7.76-19.65-18.88-20.31-.06,0-.11,0-.17,0L97.98.02c-.24-.01-.48-.02-.71-.02h0Z"/>
  </g>
</svg>