<?xml version="1.0" encoding="UTF-8"?>
<svg id="a" data-name="Layer 1" xmlns="http://www.w3.org/2000/svg" viewBox="0 0 1849.64 460.65">
  <defs>
    <style>
      .b {
        fill: #f4001f;
      }

      .c {
        fill: #fff;
      }

      .d {
        fill: #f7a905;
      }

      .e {
        fill: #a1ce02;
      }

      .f {
        fill: #009893;
      }

      .g {
        fill: #009ff3;
      }

      .h {
        fill: #ef248f;
      }
    </style>
  </defs>
  <g>
    <g>
      <path d="M778.08,440.65c-12.73,0-25.73-1.88-38.67-5.6-18.94-5.45-37.08-14.58-52.5-26.42-6.86-5.05-12.62-14.88-8.86-27.95,1.17-4.07,2.89-7.35,3.82-8.94.3-.52.62-1.02.97-1.51l14.57-20.63c-.77.31-1.56.58-2.37.82-.32.09-.64.18-.96.26l-58.41,14.05c-.32.08-.64.15-.96.21l-.59.11c-1.59.3-3.2.45-4.79.45-11.57,0-21.92-7.99-25.17-19.42-.07-.25-.14-.51-.2-.76l-25.81-106.71c-9.97,37.21-19.26,64.7-28.18,83.45-8.42,17.71-22.46,41.25-47.1,41.25-.04,0-22.97-.05-22.97-.05-.35,0-.7-.01-1.05-.03l-2.1-.12c-11.93-.65-20.74-5.94-26.18-15.71-5.33,9.31-16.25,15.67-27.92,15.72-.03,0-29.9-.12-29.9-.12-.34,0-.67-.01-1.01-.03l-1.5-.08c-14.54-.79-25.7-8.56-30.62-21.3l-41.81-106.96c-3.48,7.58-10.45,13.24-19.09,14.75,2.84,10.23,5.42,13.18,6.2,13.88.26.08.53.15.79.22,2.32.64,5.5,1.51,8.86,3.41,6.68,3.77,11.14,10.17,12.24,17.55.56,3.81,0,6.97-.32,8.86-.08.46-.18.92-.29,1.37,0,0-9.9,39.78-9.91,39.82-4.66,18.19-15.98,23.54-24.65,24.83-1.01.15-2.66.39-4.74.39-.9,0-1.8-.05-2.69-.14-30.94-1.65-52.73-11.35-68.52-30.48-12.57-15.22-21.52-36.81-28.29-68.73l-4.29.41c-.25.02-.5.04-.74.06-.49.03-.99.04-1.48.04-13.1,0-24.42-9.77-26.35-22.72-.07-.48-.12-.95-.16-1.43,0,0-3.78-50.03-3.79-50.16-.79-13.83,8.96-25.79,22.68-27.83.1-.01.2-.03.29-.04-.5-5.44-.98-11.01-1.43-16.77,0-.09-.01-.18-.02-.27-1.32-20.41,11.67-29.68,24.26-31.55l1.18-.18c.32-.05.63-.09.95-.12,0,0,56.63-5.68,56.7-5.69.96-.09,1.93-.13,2.87-.13,14.19,0,25.18,9.77,27.34,24.32.05.31.09.63.12.94.61,6.12,1.18,12.37,1.7,18.6l.17-.02c.98-.11,1.96-.17,2.95-.17,12.02,0,22.54,8.58,25.41,20.32,2.65-1.62,5.83-3.04,9.66-4.15.12-.04.24-.07.37-.1l44.52-11.98c.25-.07.51-.13.77-.19,3.31-.75,6.32-1.12,9.2-1.12.61,0,1.19.02,1.77.05,11.57.63,21.23,7.44,25.31,17.79l6.96,17.01c4.63-3.97,11.41-6.88,21.34-7.16.19,0,.38,0,.57,0,.07,0,34.75.39,34.75.39.29,0,.58.01.87.03l1.5.08c4.14.23,7.95,1.17,11.35,2.76.79-2.97,2.48-9.36,2.51-9.45,3.64-13,13.98-21.07,26.97-21.07.61,0,1.22.02,1.85.05,4.47.24,8.6,1.25,12.4,2.31l22.59,5.78c-1.65-3.99-2.91-8.2-3.74-12.59-6.57-34.9,16.48-68.63,51.38-75.2,3.91-.74,7.9-1.11,11.85-1.11,30.81,0,57.32,22.1,63.05,52.54,2.56,13.61.6,27.05-4.83,38.75,5.05,3.62,8.76,9.03,10.14,15.41l13.61,56.28c.8-5.08,1.93-10.17,3.39-15.24,5.52-19.21,16.22-36.69,30.12-49.24,17.09-15.42,38.86-23.58,62.95-23.58,11.3,0,23.24,1.79,35.49,5.31,12.31,3.54,23.82,8.76,33.84,15.3.38-.02.75-.02,1.14-.02,2.71,0,5.44.41,8.35,1.24l1.44.41c.43.12.85.26,1.27.41,12.84,4.64,47.29,17.07,52.48,18.81.12.04.24.08.36.12,14.29,5.09,21.85,20.09,17.6,34.88-.02.07-1.72,5.74-1.72,5.74-4.19,13.98-8.42,28.09-12.8,42.07,10.53-10.88,25.28-17.55,41.51-17.55,2,0,4.03.11,6.03.31,15.29,1.59,29.05,9.12,38.75,21.2,9.62,11.99,14.05,27,12.46,42.24-3.06,29.39-27.63,51.55-57.15,51.55-1.99,0-4.01-.1-5.99-.31-15.38-1.6-29.2-9.04-38.92-20.95-6.97-8.55-11.25-18.67-12.53-29.36-6.81,18.57-14.16,36.28-22.38,52.41-23.57,46.3-62.66,71.79-110.05,71.79ZM713.21,318.98c.08.33.15.67.22,1l.11.59c1.04,5.53.16,11.09-2.19,15.94,3.61-1.65,7.57-2.54,11.65-2.54,1.8,0,3.59.17,5.35.52-5.64-4.86-10.78-10.33-15.34-16.34l.2.83ZM809.43,242.38c-4.88,0-8.08,5.12-9.34,9.5-.95,3.29-1.67,8.59-.61,12.68.61,2.33,1.59,4.56,6.87,6.08.64.18,1.93.39,3.62.44,2.45-7.58,4.89-15.58,7.3-23.92.11-1.92-1.5-3.36-4.79-4.31-1.09-.31-2.11-.47-3.04-.47ZM1637.06,373.21c-1.07,0-2.15-.05-3.21-.16-9.79-.99-71.73-23.58-67.54-93.46l-5.51,54.51c-1.37,13.5-12.5,23.68-25.9,23.68-.87,0-1.75-.04-2.61-.13l-59.7-6.03c-11.63-1.18-20.54-9.38-22.99-20.04-5.54,5.81-12.32,11.2-20.28,16.06-19.28,11.77-45.21,20.02-69.36,22.07l-3.29.28c-1.69.14-3.21.21-4.64.21-15.86,0-23.46-9.18-27.05-16.99l-15.66-32.67.09,15.43c0,.34,0,.69-.02,1.03l-.03.6c-.6,13.18-11.52,24.07-24.86,24.79-.33.02-.66.03-.99.03,0,0-60.13.27-60.16.27-.31,0-.61,0-.91-.02l-.6-.03c-13.5-.61-24.16-11.51-24.79-25.34-.01-.26-.02-.52-.02-.79l-.85-146.29c0-.34,0-.68.02-1.02.27-5.96,2.43-11.38,5.9-15.66-7.41-8.96-12.42-19.94-14.08-31.89-4.23,6.11-10.75,10.65-18.27,12.25,7.26,4.06,12.47,11.55,13.45,20.5.05.48.09.96.1,1.44l1.85,49.9c0,.18.01.36.01.54.13,13.58-9.82,24.93-23.16,26.4,0,0-.64.07-.65.07,3.78,23.44,8.36,49.02,12.87,71.79.11.56.2,1.13.26,1.71l.16,1.49c1.42,13-4.88,20.52-8.76,23.85-4.14,3.55-9.19,5.67-15.4,6.47-9.36,1.66-49.17,8.71-56.18,9.48l-.59.07c-1.02.11-2.05.17-3.07.17-13.4,0-24.92-9.83-27.39-23.36-.04-.2-.07-.41-.1-.61-1.59-10.53-3.45-22.14-5.42-34.42-2.51-15.68-5.27-32.89-7.79-50l-3.29.18c-.23.01-.47.02-.7.03h-.48c-13.38,0-25-10.42-26.45-23.73-.05-.48-.09-.96-.11-1.44,0,0-1.85-50.14-1.86-50.27-.25-13.66,9.67-25.11,23.16-26.87,1.46-27.68,11.76-51.19,30.04-68.34,16.33-15.31,39.09-25.25,64.09-27.99,4.68-.51,9.47-.77,14.22-.77,8.11,0,16.08.74,23.7,2.2,12.07,1.88,20.76,11.73,22.25,25.38l.13,1.18c.11,1.04.15,2.09.1,3.13l-.57,11.96c10.57-21.18,32.41-35.57,57.58-35.57.99,0,1.99.02,2.98.07,17.11.78,32.89,8.2,44.43,20.91,11.53,12.69,17.46,29.15,16.67,46.34-.63,13.9-5.62,26.58-13.62,36.75,4.03,4.66,6.46,10.71,6.35,17.16l.02,3.64c6.01-9.6,15.07-18.29,26.92-25.66,18.32-11.39,42.52-19.08,66.38-21.1,3.37-.29,6.02-.42,8.35-.42,5.05,0,20.41,0,28.6,16.71l16.13,33.01c2.58,4.73,2.93,8.92,3.07,10.56.97,11.5-6.4,23.83-22.3,26.38.77.72,1.45,1.36,1.99,1.86,7.44,6.83,13.5,13.77,18.15,20.77l17.87-176.81c1.36-13.48,12.6-23.66,26.16-23.66.88,0,1.78.05,2.65.13l59.69,6.03c7.04.71,13.57,4.39,17.92,10.1,4.1,5.37,5.98,12.01,5.3,18.68l-5.83,57.69c28.95,4.72,54.33,17.4,72.22,36.22,21.7,22.82,31.62,52.9,28.7,86.97-1.58,18.41,1.81,25.61,8.2,31.84.11.11.22.21.32.32,7.43,7.58,10.76,15.75,9.9,24.28-.78,7.7-4.93,14.52-11.68,19.21-.12.08-.23.16-.35.24l-30.71,20.42c-6.1,4.04-12.55,6.08-19.19,6.08ZM1309.18,296.79c2.51-4.48,6.5-8.19,11.68-10.59,3.64-1.69,7.76-2.72,12.58-3.15.1-.01.2-.02.3-.03,0,0-5.62-5.27-5.67-5.32-8.19-7.86-14.55-15.67-19.13-23.56l.24,42.65Z"/>
      <path d="M1499.9,75c.21,0,.43.01.64.03l59.7,6.03c3.28.33,5.67,3.59,5.34,6.87l-7.84,77.61c3.61.06,7.19.43,10.48.76,56.11,5.67,97.51,43.63,92.43,102.82-1.66,19.43.71,34.75,14.16,47.87,1.64,1.67,4.62,4.99,4.29,8.27-.15,1.49-.93,3.22-3.2,4.8l-30.71,20.42c-3.04,2.01-5.72,2.74-8.12,2.74-.41,0-.81-.02-1.2-.06-1.19-.12-55.39-15.85-49.26-76.44,3.65-36.12-11.77-50.64-33.26-52.81l-1.49-.15-10.95,108.35c-.34,3.36-2.97,5.69-6,5.69-.2,0-.4-.01-.6-.03l-59.7-6.03c-3.58-.36-6-3.32-5.63-6.9l24.68-244.16c.31-3.09,2.97-5.67,6.26-5.67M1148.56,80.18c7.14,0,14.04.68,20.39,1.93,3.97.47,5.36,4.85,5.69,7.83l.13,1.19-1.64,34.58c-.07,4.84-4.52,8.34-8.39,8.77l-.9.1c-15.21,1.67-35.83,9.06-32.72,37.39l25.51-1.29c.2-.02.39-.03.59-.03,3.04,0,5.72,2.58,6.09,5.94l1.85,49.9c.03,3.02-2.06,5.96-5.34,6.32l-.6.07-20.97,1.39c4.69,31.78,10.96,67.01,16.36,94.18l.16,1.49c.72,6.56-3.36,7.91-7.24,8.34,0,0-48.55,8.64-55.41,9.39l-.6.07c-.3.03-.6.05-.89.05-4.03,0-7.01-3.09-7.72-6.95-4.43-29.39-10.96-67.01-15.75-102.4l-21.6,1.16s-.07,0-.11,0c-3.27,0-6.22-2.66-6.57-5.91l-1.85-49.9c-.06-3.31,2.33-6.29,5.91-6.68l17.39-1-.31-11.13c-.38-55.79,38.62-79.98,76.49-84.13,4.05-.44,8.08-.65,12.04-.65M1251.75,88.48c.69,0,1.38.02,2.07.05,24.27,1.1,43.16,21.78,42.04,46.36-1.07,23.6-20.65,42.1-44.03,42.1-.67,0-1.35-.02-2.02-.05-24.58-1.12-43.45-21.8-42.35-46.07,1.09-23.88,20.65-42.38,44.3-42.38M610.49,90.11c20.78,0,39.37,14.83,43.4,36.24,4.49,23.88-11.3,47-35.18,51.5-2.8.53-5.59.78-8.33.78-20.95,0-39.48-14.79-43.46-35.91-4.55-24.18,11.25-47.3,35.42-51.85,2.74-.51,5.47-.76,8.15-.76M258.06,123.99c4.4,0,6.86,2.59,7.55,7.26,1.26,12.55,2.31,25.74,3.27,38.34l20.65-1.86c.27-.04.53-.06.8-.06,2.96,0,5.62,2.43,6.11,5.7l3.76,49.79c.14,3.01-1.83,6.04-5.1,6.52l-.59.09-19.72,2.02c4.01,27,10.62,46.95,24.51,50.65,3.48,1,7.22,1.66,7.71,4.92.09.59-.08,1.53-.24,2.46l-9.87,39.68c-1.54,5.99-3.77,9.36-8.22,10.02-.59.09-1.19.18-1.79.18-.3,0-.61-.02-.92-.08-49.19-2.39-69.69-26.04-82.33-100.89l-22.43,2.12c-.11,0-.23,0-.34,0-3.18,0-6.09-2.51-6.56-5.66l-3.76-49.79c-.19-3.31,2.09-6.38,5.65-6.91l19.17-1.64c-1.08-11.36-2.3-23.62-3.3-36.51-.23-3.6-.48-9.33,7.24-10.48l1.19-.18,56.48-5.66c.38-.03.75-.05,1.1-.05M788.9,165.03c9.12,0,19.09,1.4,29.96,4.53,13.84,3.98,26.36,10.39,36.19,18.52,1.13-1.87,2.67-2.47,4.31-2.47.93,0,1.89.19,2.83.46l1.44.41s46.37,16.77,52.92,18.96c4.53,1.61,6.34,6.19,5.09,10.52-15.17,50.58-30.54,102.97-51.34,143.82-22.32,43.83-57.09,60.87-92.23,60.87-11.14,0-22.31-1.71-33.14-4.82-16.72-4.81-32.53-12.79-46.07-23.24-2.35-1.61-2.26-4.08-1.6-6.39.5-1.73,1.28-3.38,1.9-4.45l16.85-23.87c1.74-2.66,4.39-3.92,6.98-3.92.74,0,1.47.1,2.18.31.58.17,1.07.62,1.65.79,7.2,4.26,13.88,7.11,20.22,8.93,5.22,1.5,10.16,2.22,14.82,2.22,16.99,0,30.42-9.58,41.05-26.11-1.08.03-2.17.05-3.27.05-8.77,0-17.82-1.12-26.02-3.48-44.11-12.68-73.99-59.67-58.57-113.3,8.24-28.65,31.94-58.34,73.85-58.34M810.62,291.09c4.82,0,9.64-.77,12.95-2.18l1.69-.45c3.89-11.37,7.83-23.97,11.56-36.95,2.74-13.88-6.43-24.32-18.83-27.89-2.97-.85-5.83-1.25-8.57-1.25-14.02,0-24.68,10.47-28.56,23.98-3.23,11.24-5.42,36.21,19.96,43.51,2.89.83,6.34,1.22,9.79,1.22M1410.24,166.16c6.36,0,8.66,1.47,10.63,5.51l16.39,33.54c.7,1.15.77,2.04.85,2.94.28,3.29-2.91,4.76-6.8,5.09l-1.2.1c-17.94,1.52-24.3,8.08-23.8,14.06.43,5.08,5.4,10.38,17.82,21.98,15.02,13.78,22.14,26.73,23.1,38.09,2.99,35.27-48.9,58.94-88.96,62.33l-3.29.28c-1.07.09-2.06.14-2.96.14-4.61,0-7.07-1.33-8.93-5.46l-16.09-33.56c-.37-.87-.75-1.74-.8-2.34-.38-4.48,5.55-5.59,9.14-5.89,17.61-1.79,25.27-10.87,24.67-18.05-.33-3.89-4.62-8.34-9.26-13.37l-8.83-8.29c-14.42-13.83-20.89-26.23-21.85-37.59-2.86-33.78,44.35-55.84,83.51-59.16,2.62-.22,4.82-.35,6.66-.35M380.26,170.44c.23,0,.45,0,.67.02,4.19.23,6.78,2.47,7.83,5.24l27.03,66.08c.53,1.23,1.12,1.56,1.71,1.6.01,0,.02,0,.03,0,.6,0,1.52-.85,1.91-2.6,1.76-10.12,4.73-31.59,5.18-34.27.96-6.56,4.35-8.17,11.58-8.38l34.53.39,1.5.08c4.19.23,6.81,1.87,8.36,6.47l5.82,36.37c.25.92.78,2.15,1.38,2.18,0,0,.02,0,.03,0,.89,0,1.76-2.67,18.62-66.28,1.4-4.98,4.17-6.47,7.71-6.47.25,0,.5,0,.75.02,2.7.15,5.66.91,8.32,1.66l35.85,9.17c8.61,1.97,10.21,5.67,9.98,9.86-.08,1.5-.48,3.28-.86,4.76-27.97,116.35-47.05,146.94-65.34,146.94-.03,0-.06,0-.09,0l-22.83-.05-2.1-.11c-4.79-.26-7.72-1.62-9.91-5.65-1.6-3.69-12.36-37.63-16.43-51.08-.77-2.45-1.33-3.08-1.63-3.09,0,0-.01,0-.02,0-.59,0-.98,1.76-1.35,2.93-3.73,13.32-11.93,42.31-14.75,49.97-1.1,3.55-6.09,6.88-11.19,6.9l-29.74-.12-1.5-.08c-5.39-.3-10.69-2.39-13.05-8.53l-53.76-137.55c-.8-1.85-1.87-4.31-1.74-6.71.15-2.7,2.09-5.29,8.2-7.06l44.52-11.98c1.82-.41,3.41-.62,4.77-.62M653.61,176.55c2.65,0,5.22,2,5.71,4.64l34.45,142.49.11.59c.55,2.95-1.6,6.1-4.49,6.95l-58.41,14.05-.59.11c-.36.07-.72.1-1.08.1-2.78,0-5.13-2.06-5.93-4.89l-34.4-142.19c-.67-3.54,1.19-6.64,4.68-7.6l58.41-14.05.59-.11c.31-.06.63-.09.94-.09M1282.53,183.53l.6.03c3,.14,5.57,2.96,5.44,5.95l.84,146.59-.03.6c-.14,3-2.96,5.57-5.97,5.73l-60.08.27-.6-.03c-3.3-.15-5.57-2.96-5.72-6.27l-.85-146.29c.16-3.6,2.68-6.18,6.29-6.32l60.07-.27M967.86,271.76c1.31,0,2.63.07,3.96.21,20.59,2.14,35.53,20.89,33.38,41.48-2.01,19.27-18.3,33.62-37.26,33.62-1.3,0-2.6-.07-3.92-.2-20.89-2.17-35.86-20.62-33.71-41.21,2.01-19.28,18.34-33.89,37.55-33.89M1499.91,35h-.06c-11.65.01-22.78,4.39-31.35,12.31-8.31,7.69-13.51,18.1-14.65,29.33l-6.47,64.04c-7.53-7.68-19.25-14.51-37.13-14.51h0c-2.91,0-6.1.16-10.04.49-22.77,1.93-45.91,8.5-65.17,18.35.4-2.74.66-5.51.79-8.31,1.02-22.51-6.74-44.07-21.85-60.7-15.15-16.67-35.86-26.41-58.33-27.44-1.3-.06-2.61-.09-3.89-.09h0c-16.9,0-32.66,4.95-45.87,13.51-6.97-10.22-17.59-17.25-30.16-19.31-8.77-1.66-17.9-2.5-27.15-2.5-5.48,0-10.99.3-16.4.89-29.71,3.26-55.85,14.77-75.6,33.29-13.92,13.05-29.99,34.83-34.98,68.23-5.01,2.68-9.52,6.29-13.3,10.69-7.46,8.69-11.45,19.78-11.24,31.24,0,.24.01.49.02.73l1.85,49.9c.04.96.11,1.92.21,2.88.01.1.02.2.03.3-7.18-3.18-14.97-5.3-23.19-6.15-2.68-.28-5.41-.42-8.1-.42h0c-3.14,0-6.27.19-9.35.57l1.46-4.86c.04-.15.09-.29.13-.44,3.26-11.32,2.39-23.38-2.44-33.96-5.43-11.89-15.26-20.87-27.66-25.29-.24-.08-.47-.17-.71-.25-4.45-1.49-34.28-12.23-52.04-18.65-.84-.3-1.69-.58-2.55-.83l-1.44-.41c-3.04-.87-5.99-1.46-8.93-1.76-10.47-6.22-22.1-11.22-34.39-14.75-14.05-4.04-27.85-6.09-41.02-6.09-29.12,0-55.52,9.93-76.35,28.73-5.72,5.16-10.63,10.61-14.83,16.13-1.33-4.76-3.41-9.18-6.08-13.14,3.3-11.96,4-24.82,1.55-37.81-7.51-39.89-42.29-68.84-82.7-68.84v40-40h0c-5.2,0-10.43.49-15.55,1.45-22.19,4.18-41.41,16.72-54.11,35.31-9.26,13.56-14.27,29.17-14.68,45.24-2.81-.55-5.83-.99-9.05-1.16-.96-.05-1.96-.08-2.94-.08-19.15,0-35.38,10.61-43.27,27.65l-34.23-.38c-.15,0-.3,0-.45,0-.38,0-.76,0-1.13.02-2.83.08-6.21.29-9.9.94-7.36-16.67-23.24-27.53-42.04-28.56-.96-.05-1.91-.08-2.86-.08-4.39,0-8.85.53-13.63,1.62-.51.12-1.03.24-1.54.38l-40.33,10.86c-1.02-1.16-2.1-2.27-3.24-3.32-4.63-4.3-10.01-7.55-15.8-9.63-.1-1.03-.2-2.06-.3-3.09-.06-.63-.14-1.26-.23-1.89-3.62-24.36-23-41.38-47.12-41.38-1.54,0-3.1.07-4.66.21-.14.01-.29.03-.43.04l-56.48,5.66c-.63.06-1.26.14-1.89.23l-1.19.18c-17.21,2.56-30.86,12.78-37.44,28.03-4.71,10.92-4.07,20.85-3.83,24.59.01.18.02.36.04.54.05.7.11,1.4.17,2.09-4.43,2.78-8.39,6.3-11.7,10.48-7.12,8.96-10.68,20.2-10.03,31.65.01.25.03.49.05.74l3.76,49.79c.07.96.18,1.92.32,2.87,2.9,19.48,17.94,34.85,36.66,38.79,7.07,27.25,16.21,46.63,28.85,61.94,10.48,12.69,23.48,22.3,38.64,28.54,12.67,5.22,27,8.21,43.79,9.15,1.4.13,2.8.19,4.21.19,3.56,0,6.34-.41,7.68-.61,9.66-1.44,33.01-8.17,41.08-39.65.02-.09.05-.18.07-.28l.58-2.31,4.7,12.02c7.78,20.04,25.77,32.73,48.14,33.96l1.5.08c.67.04,1.35.06,2.02.06l29.74.12c.05,0,.11,0,.16,0s.11,0,.16,0c9.65-.04,19.12-2.73,27.46-7.79,6.48,4.08,14.82,7.17,25.47,7.75l2.1.11c.7.04,1.4.06,2.1.06l22.83.05h.18c10.73,0,26.73-3.12,41.94-17.98,8.46-8.26,16.05-19.61,23.22-34.68,2.51-5.29,5.03-11.12,7.55-17.56l8.93,36.93c.12.51.26,1.02.4,1.52,2.59,9.14,7.77,17.16,14.98,23.21,8.26,6.93,18.71,10.75,29.43,10.75,2.83,0,5.68-.27,8.47-.79l.59-.11c.65-.12,1.31-.26,1.95-.42l17.35-4.17c-3.19,17.37,3.29,34.37,17.26,44.67,17.34,13.28,37.71,23.51,58.94,29.61,14.73,4.23,29.6,6.38,44.19,6.38,26.14,0,50.31-6.7,71.83-19.9,23.21-14.24,42.06-35.37,56.04-62.81,2.29-4.51,4.52-9.12,6.68-13.82,12.61,12.72,29.13,20.65,47.25,22.53,2.67.28,5.39.42,8.07.42,19.08,0,37.43-7.03,51.68-19.79,10.11-9.05,17.56-20.47,21.79-33.13.68,4.36,1.34,8.58,1.95,12.63.06.41.13.82.2,1.23,4.21,23.04,24,39.77,47.07,39.77,1.74,0,3.51-.1,5.24-.29l.6-.07c7.24-.79,41.58-6.84,57.09-9.6,9.84-1.36,18.35-5.07,25.33-11.04,1.96-1.68,3.76-3.51,5.38-5.45,7.79,12.33,21.17,20.6,36.66,21.3l.59.03c.61.03,1.22.04,1.83.04.06,0,.12,0,.18,0l60.08-.27c.66,0,1.32-.02,1.98-.06,9.97-.54,19.54-4.34,27.24-10.77,9.15,11.96,22.93,18.61,39.22,18.61,1.99,0,4.06-.09,6.33-.28l3.29-.28c27.49-2.33,55.96-11.41,78.09-24.93,1.97-1.2,3.88-2.44,5.74-3.7,7.04,5.89,15.71,9.55,25.1,10.5l59.69,6.03c1.51.15,3.08.23,4.62.23,15.53,0,29.33-7.68,37.68-19.65,2.88,3.27,5.98,6.38,9.3,9.34,8.26,7.36,17.62,13.53,27.81,18.36,8.69,4.11,16.14,6.51,22.14,7.11,1.73.18,3.49.26,5.23.26,10.49,0,20.93-3.25,30.21-9.39.02-.01.04-.02.05-.04l30.71-20.42c.24-.16.47-.32.7-.48,11.62-8.09,18.78-20.02,20.15-33.61,1.02-10.12-.84-25.32-15.52-40.29-.21-.21-.42-.42-.64-.63-1.58-1.55-1.78-2.28-1.98-3.06-.46-1.77-.88-5.42-.26-12.77,1.71-19.89-.43-38.89-6.37-56.45-5.84-17.28-15.18-32.76-27.76-46-11.88-12.49-26.29-22.62-42.86-30.1-7.09-3.2-14.49-5.88-22.17-8.03l4.04-39.99c1.19-11.74-2.12-23.39-9.3-32.82-7.7-10.09-19.29-16.61-31.81-17.88l-59.7-6.03c-1.56-.16-3.12-.24-4.66-.24h0Z"/>
    </g>
    <g>
      <path class="c" d="M778.08,405.65c-12.73,0-25.73-1.88-38.67-5.6-18.94-5.45-37.08-14.58-52.5-26.42-6.86-5.05-12.62-14.88-8.86-27.95,1.17-4.07,2.89-7.35,3.82-8.94.3-.52.62-1.02.97-1.51l14.57-20.63c-.77.31-1.56.58-2.37.82-.32.09-.64.18-.96.26l-58.41,14.05c-.32.08-.64.15-.96.21l-.59.11c-1.59.3-3.2.45-4.79.45-11.57,0-21.92-7.99-25.17-19.42-.07-.25-.14-.51-.2-.76l-25.81-106.71c-9.97,37.21-19.26,64.7-28.18,83.45-8.42,17.71-22.46,41.25-47.1,41.25-.04,0-22.97-.05-22.97-.05-.35,0-.7-.01-1.05-.03l-2.1-.12c-11.93-.65-20.74-5.94-26.18-15.71-5.33,9.31-16.25,15.67-27.92,15.72-.03,0-29.9-.12-29.9-.12-.34,0-.67-.01-1.01-.03l-1.5-.08c-14.54-.79-25.7-8.56-30.62-21.3l-41.81-106.96c-3.48,7.58-10.45,13.24-19.09,14.75,2.84,10.23,5.42,13.18,6.2,13.88.26.08.53.15.79.22,2.32.64,5.5,1.51,8.86,3.41,6.68,3.77,11.14,10.17,12.24,17.55.56,3.81,0,6.97-.32,8.86-.08.46-.18.92-.29,1.37,0,0-9.9,39.78-9.91,39.82-4.66,18.19-15.98,23.54-24.65,24.83-1.01.15-2.66.39-4.74.39-.9,0-1.8-.05-2.69-.14-30.94-1.65-52.73-11.35-68.52-30.48-12.57-15.22-21.52-36.81-28.29-68.73l-4.29.41c-.25.02-.5.04-.74.06-.49.03-.99.04-1.48.04-13.1,0-24.42-9.77-26.35-22.72-.07-.48-.12-.95-.16-1.43,0,0-3.78-50.03-3.79-50.16-.79-13.83,8.96-25.79,22.68-27.83.1-.01.2-.03.29-.04-.5-5.44-.98-11.01-1.43-16.77,0-.09-.01-.18-.02-.27-1.32-20.41,11.67-29.68,24.26-31.55l1.18-.18c.32-.05.63-.09.95-.12,0,0,56.63-5.68,56.7-5.69.96-.09,1.93-.13,2.87-.13,14.19,0,25.18,9.77,27.34,24.32.05.31.09.63.12.94.61,6.12,1.18,12.37,1.7,18.6l.17-.02c.98-.11,1.96-.17,2.95-.17,12.02,0,22.54,8.58,25.41,20.32,2.65-1.62,5.83-3.04,9.66-4.15.12-.04.24-.07.37-.1l44.52-11.98c.25-.07.51-.13.77-.19,3.31-.75,6.32-1.12,9.2-1.12.61,0,1.19.02,1.77.05,11.57.63,21.23,7.44,25.31,17.79l6.96,17.01c4.63-3.97,11.41-6.88,21.34-7.16.19,0,.38,0,.57,0,.07,0,34.75.39,34.75.39.29,0,.58.01.87.03l1.5.08c4.14.23,7.95,1.17,11.35,2.76.79-2.97,2.48-9.36,2.51-9.45,3.64-13,13.98-21.07,26.97-21.07.61,0,1.22.02,1.85.05,4.47.24,8.6,1.25,12.4,2.31l22.59,5.78c-1.65-3.99-2.91-8.2-3.74-12.59-6.57-34.9,16.48-68.63,51.38-75.2,3.91-.74,7.9-1.11,11.85-1.11,30.81,0,57.32,22.1,63.05,52.54,2.56,13.61.6,27.05-4.83,38.75,5.05,3.62,8.76,9.03,10.14,15.41l13.61,56.28c.8-5.08,1.93-10.17,3.39-15.24,5.52-19.21,16.22-36.69,30.12-49.24,17.09-15.42,38.86-23.58,62.95-23.58,11.3,0,23.24,1.79,35.49,5.31,12.31,3.54,23.82,8.76,33.84,15.3.38-.02.75-.02,1.14-.02,2.71,0,5.44.41,8.35,1.24l1.44.41c.43.12.85.26,1.27.41,12.84,4.64,47.29,17.07,52.48,18.81.12.04.24.08.36.12,14.29,5.09,21.85,20.09,17.6,34.88-.02.07-1.72,5.74-1.72,5.74-4.19,13.98-8.42,28.09-12.8,42.07,10.53-10.88,25.28-17.55,41.51-17.55,2,0,4.03.11,6.03.31,15.29,1.59,29.05,9.12,38.75,21.2,9.62,11.99,14.05,27,12.46,42.24-3.06,29.39-27.63,51.55-57.15,51.55-1.99,0-4.01-.1-5.99-.31-15.38-1.6-29.2-9.04-38.92-20.95-6.97-8.55-11.25-18.67-12.53-29.36-6.81,18.57-14.16,36.28-22.38,52.41-23.57,46.3-62.66,71.79-110.05,71.79ZM713.21,283.98c.08.33.15.67.22,1l.11.59c1.04,5.53.16,11.09-2.19,15.94,3.61-1.65,7.57-2.54,11.65-2.54,1.8,0,3.59.17,5.35.52-5.64-4.86-10.78-10.33-15.34-16.34l.2.83ZM809.43,207.38c-4.88,0-8.08,5.12-9.34,9.5-.95,3.29-1.67,8.59-.61,12.68.61,2.33,1.59,4.56,6.87,6.08.64.18,1.93.39,3.62.44,2.45-7.58,4.89-15.58,7.3-23.92.11-1.92-1.5-3.36-4.79-4.31-1.09-.31-2.11-.47-3.04-.47ZM1637.06,338.21c-1.07,0-2.15-.05-3.21-.16-9.79-.99-71.73-23.58-67.54-93.46l-5.51,54.51c-1.37,13.5-12.5,23.68-25.9,23.68-.87,0-1.75-.04-2.61-.13l-59.7-6.03c-11.63-1.18-20.54-9.38-22.99-20.04-5.54,5.81-12.32,11.2-20.28,16.06-19.28,11.77-45.21,20.02-69.36,22.07l-3.29.28c-1.69.14-3.21.21-4.64.21-15.86,0-23.46-9.18-27.05-16.99l-15.66-32.67.09,15.43c0,.34,0,.69-.02,1.03l-.03.6c-.6,13.18-11.52,24.07-24.86,24.79-.33.02-.66.03-.99.03,0,0-60.13.27-60.16.27-.31,0-.61,0-.91-.02l-.6-.03c-13.5-.61-24.16-11.51-24.79-25.34-.01-.26-.02-.52-.02-.79l-.85-146.29c0-.34,0-.68.02-1.02.27-5.96,2.43-11.38,5.9-15.66-7.41-8.96-12.42-19.94-14.08-31.89-4.23,6.11-10.75,10.65-18.27,12.25,7.26,4.06,12.47,11.55,13.45,20.5.05.48.09.96.1,1.44l1.85,49.9c0,.18.01.36.01.54.13,13.58-9.82,24.93-23.16,26.4,0,0-.64.07-.65.07,3.78,23.44,8.36,49.02,12.87,71.79.11.56.2,1.13.26,1.71l.16,1.49c1.42,13-4.88,20.52-8.76,23.85-4.14,3.55-9.19,5.67-15.4,6.47-9.36,1.66-49.17,8.71-56.18,9.48l-.59.07c-1.02.11-2.05.17-3.07.17-13.4,0-24.92-9.83-27.39-23.36-.04-.2-.07-.41-.1-.61-1.59-10.53-3.45-22.14-5.42-34.42-2.51-15.68-5.27-32.89-7.79-50l-3.29.18c-.23.01-.47.02-.7.03h-.48c-13.38,0-25-10.42-26.45-23.73-.05-.48-.09-.96-.11-1.44,0,0-1.85-50.14-1.86-50.27-.25-13.66,9.67-25.11,23.16-26.87,1.46-27.68,11.76-51.19,30.04-68.34,16.33-15.31,39.09-25.25,64.09-27.99,4.68-.51,9.47-.77,14.22-.77,8.11,0,16.08.74,23.7,2.2,12.07,1.88,20.76,11.73,22.25,25.38l.13,1.18c.11,1.04.15,2.09.1,3.13l-.57,11.96c10.57-21.18,32.41-35.57,57.58-35.57.99,0,1.99.02,2.98.07,17.11.78,32.89,8.2,44.43,20.91,11.53,12.69,17.46,29.15,16.67,46.34-.63,13.9-5.62,26.58-13.62,36.75,4.03,4.66,6.46,10.71,6.35,17.16l.02,3.64c6.01-9.6,15.07-18.29,26.92-25.66,18.32-11.39,42.52-19.08,66.38-21.1,3.37-.29,6.02-.42,8.35-.42,5.05,0,20.41,0,28.6,16.71l16.13,33.01c2.58,4.73,2.93,8.92,3.07,10.56.97,11.5-6.4,23.83-22.3,26.38.77.72,1.45,1.36,1.99,1.86,7.44,6.83,13.5,13.77,18.15,20.77l17.87-176.81c1.36-13.48,12.6-23.66,26.16-23.66.88,0,1.78.05,2.65.13l59.69,6.03c7.04.71,13.57,4.39,17.92,10.1,4.1,5.37,5.98,12.01,5.3,18.68l-5.83,57.69c28.95,4.72,54.33,17.4,72.22,36.22,21.7,22.82,31.62,52.9,28.7,86.97-1.58,18.41,1.81,25.61,8.2,31.84.11.11.22.21.32.32,7.43,7.58,10.76,15.75,9.9,24.28-.78,7.7-4.93,14.52-11.68,19.21-.12.08-.23.16-.35.24l-30.71,20.42c-6.1,4.04-12.55,6.08-19.19,6.08ZM1309.18,261.79c2.51-4.48,6.5-8.19,11.68-10.59,3.64-1.69,7.76-2.72,12.58-3.15.1-.01.2-.02.3-.03,0,0-5.62-5.27-5.67-5.32-8.19-7.86-14.55-15.67-19.13-23.56l.24,42.65Z"/>
      <path d="M1499.9,40c.21,0,.43.01.64.03l59.7,6.03c3.28.33,5.67,3.59,5.34,6.87l-7.84,77.61c3.61.06,7.19.43,10.48.76,56.11,5.67,97.51,43.63,92.43,102.82-1.66,19.43.71,34.75,14.16,47.87,1.64,1.67,4.62,4.99,4.29,8.27-.15,1.49-.93,3.22-3.2,4.8l-30.71,20.42c-3.04,2.01-5.72,2.74-8.12,2.74-.41,0-.81-.02-1.2-.06-1.19-.12-55.39-15.85-49.26-76.44,3.65-36.12-11.77-50.64-33.26-52.81l-1.49-.15-10.95,108.35c-.34,3.36-2.97,5.69-6,5.69-.2,0-.4-.01-.6-.03l-59.7-6.03c-3.58-.36-6-3.32-5.63-6.9l24.68-244.16c.31-3.09,2.97-5.67,6.26-5.67M1148.56,45.18c7.14,0,14.04.68,20.39,1.93,3.97.47,5.36,4.85,5.69,7.83l.13,1.19-1.64,34.58c-.07,4.84-4.52,8.34-8.39,8.77l-.9.1c-15.21,1.67-35.83,9.06-32.72,37.39l25.51-1.29c.2-.02.39-.03.59-.03,3.04,0,5.72,2.58,6.09,5.94l1.85,49.9c.03,3.02-2.06,5.96-5.34,6.32l-.6.07-20.97,1.39c4.69,31.78,10.96,67.01,16.36,94.18l.16,1.49c.72,6.56-3.36,7.91-7.24,8.34,0,0-48.55,8.64-55.41,9.39l-.6.07c-.3.03-.6.05-.89.05-4.03,0-7.01-3.09-7.72-6.95-4.43-29.39-10.96-67.01-15.75-102.4l-21.6,1.16s-.07,0-.11,0c-3.27,0-6.22-2.66-6.57-5.91l-1.85-49.9c-.06-3.31,2.33-6.29,5.91-6.68l17.39-1-.31-11.13c-.38-55.79,38.62-79.98,76.49-84.13,4.05-.44,8.08-.65,12.04-.65M1251.75,53.48c.69,0,1.38.02,2.07.05,24.27,1.1,43.16,21.78,42.04,46.36-1.07,23.6-20.65,42.1-44.03,42.1-.67,0-1.35-.02-2.02-.05-24.58-1.12-43.45-21.8-42.35-46.07,1.09-23.88,20.65-42.38,44.3-42.38M610.49,55.11c20.78,0,39.37,14.83,43.4,36.24,4.49,23.88-11.3,47-35.18,51.5-2.8.53-5.59.78-8.33.78-20.95,0-39.48-14.79-43.46-35.91-4.55-24.18,11.25-47.3,35.42-51.85,2.74-.51,5.47-.76,8.15-.76M258.06,88.99c4.4,0,6.86,2.59,7.55,7.26,1.26,12.55,2.31,25.74,3.27,38.34l20.65-1.86c.27-.04.53-.06.8-.06,2.96,0,5.62,2.43,6.11,5.7l3.76,49.79c.14,3.01-1.83,6.04-5.1,6.52l-.59.09-19.72,2.02c4.01,27,10.62,46.95,24.51,50.65,3.48,1,7.22,1.66,7.71,4.92.09.59-.08,1.53-.24,2.46l-9.87,39.68c-1.54,5.99-3.77,9.36-8.22,10.02-.59.09-1.19.18-1.79.18-.3,0-.61-.02-.92-.08-49.19-2.39-69.69-26.04-82.33-100.89l-22.43,2.12c-.11,0-.23,0-.34,0-3.18,0-6.09-2.51-6.56-5.66l-3.76-49.79c-.19-3.31,2.09-6.38,5.65-6.91l19.17-1.64c-1.08-11.36-2.3-23.62-3.3-36.51-.23-3.6-.48-9.33,7.24-10.48l1.19-.18,56.48-5.66c.38-.03.75-.05,1.1-.05M788.9,130.03c9.12,0,19.09,1.4,29.96,4.53,13.84,3.98,26.36,10.39,36.19,18.52,1.13-1.87,2.67-2.47,4.31-2.47.93,0,1.89.19,2.83.46l1.44.41s46.37,16.77,52.92,18.96c4.53,1.61,6.34,6.19,5.09,10.52-15.17,50.58-30.54,102.97-51.34,143.82-22.32,43.83-57.09,60.87-92.23,60.87-11.14,0-22.31-1.71-33.14-4.82-16.72-4.81-32.53-12.79-46.07-23.24-2.35-1.61-2.26-4.08-1.6-6.39.5-1.73,1.28-3.38,1.9-4.45l16.85-23.87c1.74-2.66,4.39-3.92,6.98-3.92.74,0,1.47.1,2.18.31.58.17,1.07.62,1.65.79,7.2,4.26,13.88,7.11,20.22,8.93,5.22,1.5,10.16,2.22,14.82,2.22,16.99,0,30.42-9.58,41.05-26.11-1.08.03-2.17.05-3.27.05-8.77,0-17.82-1.12-26.02-3.48-44.11-12.68-73.99-59.67-58.57-113.3,8.24-28.65,31.94-58.34,73.85-58.34M810.62,256.09c4.82,0,9.64-.77,12.95-2.18l1.69-.45c3.89-11.37,7.83-23.97,11.56-36.95,2.74-13.88-6.43-24.32-18.83-27.89-2.97-.85-5.83-1.25-8.57-1.25-14.02,0-24.68,10.47-28.56,23.98-3.23,11.24-5.42,36.21,19.96,43.51,2.89.83,6.34,1.22,9.79,1.22M1410.24,131.16c6.36,0,8.66,1.47,10.63,5.51l16.39,33.54c.7,1.15.77,2.04.85,2.94.28,3.29-2.91,4.76-6.8,5.09l-1.2.1c-17.94,1.52-24.3,8.08-23.8,14.06.43,5.08,5.4,10.38,17.82,21.98,15.02,13.78,22.14,26.73,23.1,38.09,2.99,35.27-48.9,58.94-88.96,62.33l-3.29.28c-1.07.09-2.06.14-2.96.14-4.61,0-7.07-1.33-8.93-5.46l-16.09-33.56c-.37-.87-.75-1.74-.8-2.34-.38-4.48,5.55-5.59,9.14-5.89,17.61-1.79,25.27-10.87,24.67-18.05-.33-3.89-4.62-8.34-9.26-13.37l-8.83-8.29c-14.42-13.83-20.89-26.23-21.85-37.59-2.86-33.78,44.35-55.84,83.51-59.16,2.62-.22,4.82-.35,6.66-.35M380.26,135.44c.23,0,.45,0,.67.02,4.19.23,6.78,2.47,7.83,5.24l27.03,66.08c.53,1.23,1.12,1.56,1.71,1.6.01,0,.02,0,.03,0,.6,0,1.52-.85,1.91-2.6,1.76-10.12,4.73-31.59,5.18-34.27.96-6.56,4.35-8.17,11.58-8.38l34.53.39,1.5.08c4.19.23,6.81,1.87,8.36,6.47l5.82,36.37c.25.92.78,2.15,1.38,2.18,0,0,.02,0,.03,0,.89,0,1.76-2.67,18.62-66.28,1.4-4.98,4.17-6.47,7.71-6.47.25,0,.5,0,.75.02,2.7.15,5.66.91,8.32,1.66l35.85,9.17c8.61,1.97,10.21,5.67,9.98,9.86-.08,1.5-.48,3.28-.86,4.76-27.97,116.35-47.05,146.94-65.34,146.94-.03,0-.06,0-.09,0l-22.83-.05-2.1-.11c-4.79-.26-7.72-1.62-9.91-5.65-1.6-3.69-12.36-37.63-16.43-51.08-.77-2.45-1.33-3.08-1.63-3.09,0,0-.01,0-.02,0-.59,0-.98,1.76-1.35,2.93-3.73,13.32-11.93,42.31-14.75,49.97-1.1,3.55-6.09,6.88-11.19,6.9l-29.74-.12-1.5-.08c-5.39-.3-10.69-2.39-13.05-8.53l-53.76-137.55c-.8-1.85-1.87-4.31-1.74-6.71.15-2.7,2.09-5.29,8.2-7.06l44.52-11.98c1.82-.41,3.41-.62,4.77-.62M653.61,141.55c2.65,0,5.22,2,5.71,4.64l34.45,142.49.11.59c.55,2.95-1.6,6.1-4.49,6.95l-58.41,14.05-.59.11c-.36.07-.72.1-1.08.1-2.78,0-5.13-2.06-5.93-4.89l-34.4-142.19c-.67-3.54,1.19-6.64,4.68-7.6l58.41-14.05.59-.11c.31-.06.63-.09.94-.09M1282.53,148.53l.6.03c3,.14,5.57,2.96,5.44,5.95l.84,146.59-.03.6c-.14,3-2.96,5.57-5.97,5.73l-60.08.27-.6-.03c-3.3-.15-5.57-2.96-5.72-6.27l-.85-146.29c.16-3.6,2.68-6.18,6.29-6.32l60.07-.27M967.86,236.76c1.31,0,2.63.07,3.96.21,20.59,2.14,35.53,20.89,33.38,41.48-2.01,19.27-18.3,33.62-37.26,33.62-1.3,0-2.6-.07-3.92-.2-20.89-2.17-35.86-20.62-33.71-41.21,2.01-19.28,18.34-33.89,37.55-33.89M1499.91,0h-.06c-11.65.01-22.78,4.39-31.35,12.31-8.31,7.69-13.51,18.1-14.65,29.33l-6.47,64.04c-7.53-7.68-19.25-14.51-37.13-14.51h0c-2.91,0-6.1.16-10.04.49-22.77,1.93-45.91,8.5-65.17,18.35.4-2.74.66-5.51.79-8.31,1.02-22.51-6.74-44.07-21.85-60.7-15.15-16.67-35.86-26.41-58.33-27.44-1.3-.06-2.61-.09-3.89-.09h0c-16.9,0-32.66,4.95-45.87,13.51-6.97-10.22-17.59-17.25-30.16-19.31-8.77-1.66-17.9-2.5-27.15-2.5-5.48,0-10.99.3-16.4.89-29.71,3.26-55.85,14.77-75.6,33.29-13.92,13.05-29.99,34.83-34.98,68.23-5.01,2.68-9.52,6.29-13.3,10.69-7.46,8.69-11.45,19.78-11.24,31.24,0,.24.01.49.02.73l1.85,49.9c.04.96.11,1.92.21,2.88.01.1.02.2.03.3-7.18-3.18-14.97-5.3-23.19-6.15-2.68-.28-5.41-.42-8.1-.42h0c-3.14,0-6.27.19-9.35.57l1.46-4.86c.04-.15.09-.29.13-.44,3.26-11.32,2.39-23.38-2.44-33.96-5.43-11.89-15.26-20.87-27.66-25.29-.24-.08-.47-.17-.71-.25-4.45-1.49-34.28-12.23-52.04-18.65-.84-.3-1.69-.58-2.55-.83l-1.44-.41c-3.04-.87-5.99-1.46-8.93-1.76-10.47-6.22-22.1-11.22-34.39-14.75-14.05-4.04-27.85-6.09-41.02-6.09-29.12,0-55.52,9.93-76.35,28.73-5.72,5.16-10.63,10.61-14.83,16.13-1.33-4.76-3.41-9.18-6.08-13.14,3.3-11.96,4-24.82,1.55-37.81-7.51-39.89-42.29-68.84-82.7-68.84v40V15.11h0c-5.2,0-10.43.49-15.55,1.45-22.19,4.18-41.41,16.72-54.11,35.31-9.26,13.56-14.27,29.17-14.68,45.24-2.81-.55-5.83-.99-9.05-1.16-.96-.05-1.96-.08-2.94-.08-19.15,0-35.38,10.61-43.27,27.65l-34.23-.38c-.15,0-.3,0-.45,0-.38,0-.76,0-1.13.02-2.83.08-6.21.29-9.9.94-7.36-16.67-23.24-27.53-42.04-28.56-.96-.05-1.91-.08-2.86-.08-4.39,0-8.85.53-13.63,1.62-.51.12-1.03.24-1.54.38l-40.33,10.86c-1.02-1.16-2.1-2.27-3.24-3.32-4.63-4.3-10.01-7.55-15.8-9.63-.1-1.03-.2-2.06-.3-3.09-.06-.63-.14-1.26-.23-1.89-3.62-24.36-23-41.38-47.12-41.38-1.54,0-3.1.07-4.66.21-.14.01-.29.03-.43.04l-56.48,5.66c-.63.06-1.26.14-1.89.23l-1.19.18c-17.21,2.56-30.86,12.78-37.44,28.03-4.71,10.92-4.07,20.85-3.83,24.59.01.18.02.36.04.54.05.7.11,1.4.17,2.09-4.43,2.78-8.39,6.3-11.7,10.48-7.12,8.96-10.68,20.2-10.03,31.65.01.25.03.49.05.74l3.76,49.79c.07.96.18,1.92.32,2.87,2.9,19.48,17.94,34.85,36.66,38.79,7.07,27.25,16.21,46.63,28.85,61.94,10.48,12.69,23.48,22.3,38.64,28.54,12.67,5.22,27,8.21,43.79,9.15,1.4.13,2.8.19,4.21.19,3.56,0,6.34-.41,7.68-.61,9.66-1.44,33.01-8.17,41.08-39.65.02-.09.05-.18.07-.28l.58-2.31,4.7,12.02c7.78,20.04,25.77,32.73,48.14,33.96l1.5.08c.67.04,1.35.06,2.02.06l29.74.12c.05,0,.11,0,.16,0s.11,0,.16,0c9.65-.04,19.12-2.73,27.46-7.79,6.48,4.08,14.82,7.17,25.47,7.75l2.1.11c.7.04,1.4.06,2.1.06l22.83.05h.18c10.73,0,26.73-3.12,41.94-17.98,8.46-8.26,16.05-19.61,23.22-34.68,2.51-5.29,5.03-11.12,7.55-17.56l8.93,36.93c.12.51.26,1.02.4,1.52,2.59,9.14,7.77,17.16,14.98,23.21,8.26,6.93,18.71,10.75,29.43,10.75,2.83,0,5.68-.27,8.47-.79l.59-.11c.65-.12,1.31-.26,1.95-.42l17.35-4.17c-3.19,17.37,3.29,34.37,17.26,44.67,17.34,13.28,37.71,23.51,58.94,29.61,14.73,4.23,29.6,6.38,44.19,6.38,26.14,0,50.31-6.7,71.83-19.9,23.21-14.24,42.06-35.37,56.04-62.81,2.29-4.51,4.52-9.12,6.68-13.82,12.61,12.72,29.13,20.65,47.25,22.53,2.67.28,5.39.42,8.07.42,19.08,0,37.43-7.03,51.68-19.79,10.11-9.05,17.56-20.47,21.79-33.13.68,4.36,1.34,8.58,1.95,12.63.06.41.13.82.2,1.23,4.21,23.04,24,39.77,47.07,39.77,1.74,0,3.51-.1,5.24-.29l.6-.07c7.24-.79,41.58-6.84,57.09-9.6,9.84-1.36,18.35-5.07,25.33-11.04,1.96-1.68,3.76-3.51,5.38-5.45,7.79,12.33,21.17,20.6,36.66,21.3l.59.03c.61.03,1.22.04,1.83.04.06,0,.12,0,.18,0l60.08-.27c.66,0,1.32-.02,1.98-.06,9.97-.54,19.54-4.34,27.24-10.77,9.15,11.96,22.93,18.61,39.22,18.61,1.99,0,4.06-.09,6.33-.28l3.29-.28c27.49-2.33,55.96-11.41,78.09-24.93,1.97-1.2,3.88-2.44,5.74-3.7,7.04,5.89,15.71,9.55,25.1,10.5l59.69,6.03c1.51.15,3.08.23,4.62.23,15.53,0,29.33-7.68,37.68-19.65,2.88,3.27,5.98,6.38,9.3,9.34,8.26,7.36,17.62,13.53,27.81,18.36,8.69,4.11,16.14,6.51,22.14,7.11,1.73.18,3.49.26,5.23.26,10.49,0,20.93-3.25,30.21-9.39.02-.01.04-.02.05-.04l30.71-20.42c.24-.16.47-.32.7-.48,11.62-8.09,18.78-20.02,20.15-33.61,1.02-10.12-.84-25.32-15.52-40.29-.21-.21-.42-.42-.64-.63-1.58-1.55-1.78-2.28-1.98-3.06-.46-1.77-.88-5.42-.26-12.77,1.71-19.89-.43-38.89-6.37-56.45-5.84-17.28-15.18-32.76-27.76-46-11.88-12.49-26.29-22.62-42.86-30.1-7.09-3.2-14.49-5.88-22.17-8.03l4.04-39.99c1.19-11.74-2.12-23.39-9.3-32.82-7.7-10.09-19.29-16.61-31.81-17.88l-59.7-6.03c-1.56-.16-3.12-.24-4.66-.24h0Z"/>
    </g>
  </g>
  <g>
    <path class="e" d="M79.28,227.84v3.71c0,1.8-.68,2.82-2.02,3.04-.9.45-1.69.68-2.36.68-12.15,1.35-20.7,2.48-25.64,3.37-6.75.9-17.09,2.25-31.04,4.05-1.13.23-3.04.45-5.73.68-2.7.23-4.61.45-5.73.67-2.93.45-4.39-.11-4.39-1.69-.67-1.35-1.01-2.81-1.01-4.38-.67-7.42-1.01-11.24-1.01-11.47-.23-9.45-.34-15.07-.34-16.87,0-5.17.22-9.78.67-13.83.22-1.35.34-3.26.34-5.74s.11-4.27.34-5.4c0-2.92,1.46-4.39,4.39-4.39,1.8,0,3.15.12,4.05.34,2.92.23,7.31.79,13.16,1.69,5.62.68,14.11,1.74,25.47,3.21,11.35,1.46,19.85,2.53,25.47,3.2,2.47.45,4.05,1.07,4.72,1.86.68.79.9,2.31.68,4.55-.45,4.72-.68,9.56-.68,14.51s.22,11.25.68,18.22Z"/>
    <path class="g" d="M109.64,310.5c.45.9,1.12,2.02,2.02,3.37.67,1.12.56,2.36-.34,3.71l-1.69,1.69c-2.25,1.8-5.74,4.44-10.46,7.93-4.72,3.48-8.21,6.12-10.46,7.93-2.93,2.25-7.2,5.51-12.82,9.78-5.62,4.27-9.56,7.31-11.81,9.11-4.05,3.15-7.2,5.51-9.45,7.08-2.02,1.57-3.6,1.8-4.72.68-1.35-1.35-2.25-2.36-2.7-3.04-.68-.9-1.8-2.42-3.37-4.55-1.58-2.14-2.7-3.77-3.37-4.89-7.88-12.82-12.94-21.82-15.18-26.99l-5.06-10.12c-1.13-2.47-.45-4.5,2.02-6.07l3.37-1.69,12.15-5.06c5.17-2.25,13.04-5.57,23.61-9.95,10.57-4.38,18.55-7.7,23.95-9.95,2.25-1.12,3.88-1.46,4.89-1.01,1.01.45,1.97,1.8,2.87,4.05,5.17,10.57,10.68,19.9,16.53,28Z"/>
    <path class="b" d="M93.78,141.82c-.23.45-.56,1.01-1.01,1.69-.45.68-.79,1.24-1.01,1.69-.67,1.13-1.69,1.69-3.04,1.69-.23,0-.62-.05-1.18-.17-.56-.11-.96-.28-1.18-.51-2.7-1.12-6.69-2.81-11.98-5.06-5.29-2.25-9.28-3.93-11.98-5.06-10.12-4.27-19.68-8.21-28.68-11.81-1.13-.45-2.93-1.23-5.4-2.36-2.48-1.12-4.39-1.91-5.73-2.36-2.25-.9-3.15-2.13-2.7-3.71l1.01-4.05c1.12-2.47,2.81-5.96,5.06-10.46,6.29-12.15,11.47-21.03,15.52-26.65,1.57-2.02,3.71-5.06,6.41-9.11,1.35-2.47,3.37-3.04,6.07-1.69l3.04,2.02c1.35.9,3.15,2.25,5.4,4.05,2.25,1.8,4.05,3.15,5.4,4.05,4.5,3.37,11.3,8.55,20.41,15.52,9.11,6.97,15.91,12.26,20.41,15.86,2.02,1.57,3.15,2.81,3.37,3.71.22.9-.45,2.36-2.02,4.39-6.07,9-11.47,18.44-16.19,28.34Z"/>
  </g>
  <g>
    <path class="d" d="M1771.04,209.63c0-4.95-.22-9.78-.68-14.51-.22-2.25,0-3.76.68-4.55.67-.79,2.25-1.4,4.72-1.86,5.62-.67,14.12-1.74,25.47-3.2,11.36-1.46,19.85-2.53,25.47-3.21,5.85-.9,10.24-1.46,13.16-1.69.9-.22,2.25-.34,4.05-.34,2.93,0,4.39,1.47,4.39,4.39.23,1.13.34,2.93.34,5.4s.12,4.39.34,5.74c.45,4.05.67,8.66.67,13.83,0,1.8-.11,7.42-.34,16.87,0,.23-.34,4.05-1.01,11.47,0,1.58-.34,3.04-1.01,4.38,0,1.58-1.46,2.14-4.39,1.69-1.12-.22-3.04-.45-5.73-.67-2.7-.22-4.61-.45-5.73-.68-13.94-1.8-24.29-3.15-31.04-4.05-4.94-.9-13.49-2.02-25.64-3.37-.67,0-1.46-.22-2.36-.68-1.35-.22-2.02-1.23-2.02-3.04v-3.71c.45-6.97.68-13.04.68-18.22Z"/>
    <path class="h" d="M1756.53,282.5c.9-2.25,1.86-3.6,2.87-4.05,1.01-.45,2.65-.11,4.89,1.01,5.4,2.25,13.38,5.57,23.95,9.95,10.57,4.38,18.44,7.71,23.61,9.95l12.15,5.06,3.37,1.69c2.48,1.57,3.15,3.6,2.02,6.07l-5.06,10.12c-2.25,5.17-7.31,14.17-15.18,26.99-.67,1.12-1.8,2.75-3.37,4.89-1.57,2.13-2.7,3.65-3.37,4.55-.45.68-1.35,1.69-2.7,3.04-1.12,1.12-2.7.9-4.72-.68-2.25-1.58-5.4-3.94-9.45-7.08-2.25-1.8-6.18-4.84-11.81-9.11-5.62-4.28-9.89-7.54-12.82-9.78-2.25-1.8-5.74-4.44-10.46-7.93-4.72-3.49-8.21-6.13-10.46-7.93l-1.69-1.69c-.9-1.35-1.01-2.59-.34-3.71.9-1.35,1.58-2.47,2.02-3.37,5.85-8.1,11.36-17.43,16.53-28Z"/>
    <path class="f" d="M1739.67,113.48c-1.57-2.02-2.25-3.48-2.02-4.39.23-.9,1.35-2.13,3.37-3.71,4.5-3.6,11.3-8.88,20.41-15.86,9.11-6.97,15.91-12.15,20.41-15.52,1.35-.9,3.15-2.25,5.4-4.05,2.25-1.8,4.05-3.15,5.4-4.05l3.04-2.02c2.7-1.35,4.72-.79,6.07,1.69,2.7,4.05,4.84,7.08,6.41,9.11,4.05,5.62,9.22,14.51,15.52,26.65,2.25,4.5,3.94,7.99,5.06,10.46l1.01,4.05c.45,1.58-.45,2.82-2.7,3.71-1.35.45-3.26,1.24-5.73,2.36-2.47,1.13-4.27,1.91-5.4,2.36-8.99,3.6-18.55,7.54-28.68,11.81-2.7,1.13-6.69,2.82-11.98,5.06-5.28,2.25-9.28,3.94-11.98,5.06-.22.23-.62.4-1.18.51-.56.12-.95.17-1.18.17-1.35,0-2.36-.56-3.04-1.69-.22-.45-.56-1.01-1.01-1.69-.45-.68-.78-1.23-1.01-1.69-4.72-9.89-10.12-19.34-16.19-28.34Z"/>
  </g>
  <path d="M1259.01,89.11c.02,3.65,3.14,6.62,6.79,6.59,3.65-.14,6.62-3.14,6.48-6.79-.02-3.65-3.03-6.62-6.79-6.59-3.54.02-6.51,3.03-6.48,6.79"/>
  <path d="M1231.02,89.63c.14,3.65,3.03,6.62,6.79,6.59,3.65-.14,6.62-3.14,6.59-6.79-.02-3.65-3.14-6.62-6.79-6.59s-6.62,3.03-6.59,6.79"/>
  <path d="M1260,105.04c-8.26,6.36-14.82,1.21-15.6.55-1.89-1.54-4.66-1.41-6.3.48-1.54,1.89-1.41,4.66.48,6.3,4.34,3.84,15.44,8.53,26.89-.18,1.98-1.56,2.29-4.33.84-6.31-1.56-1.98-4.33-2.29-6.31-.84"/>
</svg>