<?xml version="1.0" encoding="UTF-8"?>
<svg id="Layer_1" data-name="Layer 1" xmlns="http://www.w3.org/2000/svg" viewBox="0 0 1720 225.69">
  <defs>
    <style>
      .cls-1 {
        fill: #f4001f;
      }

      .cls-2 {
        fill: #fff;
      }

      .cls-3 {
        fill: #f7a905;
      }

      .cls-4 {
        fill: #a1ce02;
      }

      .cls-5 {
        fill: #009893;
      }

      .cls-6 {
        fill: #009ff3;
      }

      .cls-7 {
        fill: #ef248f;
      }
    </style>
  </defs>
  <g id="fuckass_lines_LEFT_" data-name="fuckass lines [LEFT]">
    <path class="cls-4" d="M36.4,112.24v1.7c0,.83-.31,1.29-.93,1.39-.41.21-.77.31-1.08.31-5.58.62-9.5,1.14-11.77,1.55-3.1.41-7.85,1.03-14.25,1.86-.52.1-1.39.21-2.63.31-1.24.1-2.12.21-2.63.31-1.34.21-2.01-.05-2.01-.77-.31-.62-.46-1.29-.46-2.01-.31-3.41-.46-5.16-.46-5.27-.1-4.34-.15-6.92-.15-7.74,0-2.37.1-4.49.31-6.35.1-.62.15-1.5.15-2.63s.05-1.96.16-2.48c0-1.34.67-2.01,2.01-2.01.83,0,1.44.05,1.86.16,1.34.1,3.35.36,6.04.77,2.58.31,6.48.8,11.69,1.47,5.21.67,9.11,1.16,11.69,1.47,1.14.21,1.86.49,2.17.85.31.36.41,1.06.31,2.09-.21,2.17-.31,4.39-.31,6.66s.1,5.16.31,8.36Z"/>
    <path class="cls-6" d="M50.34,150.19c.21.41.52.93.93,1.55.31.52.26,1.08-.15,1.7l-.77.77c-1.03.83-2.63,2.04-4.8,3.64-2.17,1.6-3.77,2.81-4.8,3.64-1.34,1.03-3.31,2.53-5.89,4.49-2.58,1.96-4.39,3.35-5.42,4.18-1.86,1.45-3.31,2.53-4.34,3.25-.93.72-1.65.83-2.17.31-.62-.62-1.03-1.08-1.24-1.39-.31-.41-.83-1.11-1.55-2.09-.72-.98-1.24-1.73-1.55-2.25-3.62-5.89-5.94-10.02-6.97-12.39l-2.32-4.65c-.52-1.14-.21-2.06.93-2.79l1.55-.77,5.58-2.32c2.37-1.03,5.99-2.56,10.84-4.57,4.85-2.01,8.52-3.54,11-4.57,1.03-.52,1.78-.67,2.25-.46.46.21.9.83,1.32,1.86,2.37,4.85,4.9,9.14,7.59,12.86Z"/>
    <path class="cls-1" d="M43.06,72.74c-.1.21-.26.46-.46.77-.21.31-.36.57-.46.77-.31.52-.77.77-1.39.77-.1,0-.29-.02-.54-.08-.26-.05-.44-.13-.54-.23-1.24-.52-3.07-1.29-5.5-2.32-2.43-1.03-4.26-1.81-5.5-2.32-4.65-1.96-9.04-3.77-13.17-5.42-.52-.21-1.34-.57-2.48-1.08-1.14-.52-2.01-.88-2.63-1.08-1.03-.41-1.45-.98-1.24-1.7l.46-1.86c.52-1.14,1.29-2.73,2.32-4.8,2.89-5.58,5.27-9.65,7.12-12.24.72-.93,1.7-2.32,2.94-4.18.62-1.14,1.55-1.39,2.79-.77l1.39.93c.62.41,1.44,1.03,2.48,1.86,1.03.83,1.86,1.45,2.48,1.86,2.06,1.55,5.19,3.93,9.37,7.12,4.18,3.2,7.3,5.63,9.37,7.28.93.72,1.44,1.29,1.55,1.7.1.41-.21,1.08-.93,2.01-2.79,4.13-5.27,8.47-7.43,13.01Z"/>
  </g>
  <g id="fuckass_lines_RIGHT_" data-name="fuckass lines [RIGHT]">
    <path class="cls-3" d="M1683.91,103.88c0-2.27-.1-4.49-.31-6.66-.1-1.03,0-1.73.31-2.09.31-.36,1.03-.64,2.17-.85,2.58-.31,6.48-.8,11.69-1.47,5.22-.67,9.11-1.16,11.69-1.47,2.69-.41,4.7-.67,6.04-.77.41-.1,1.03-.16,1.86-.16,1.34,0,2.01.67,2.01,2.01.1.52.16,1.34.16,2.48s.05,2.01.15,2.63c.21,1.86.31,3.98.31,6.35,0,.83-.05,3.41-.15,7.74,0,.1-.16,1.86-.46,5.27,0,.72-.16,1.39-.46,2.01,0,.72-.67.98-2.01.77-.52-.1-1.39-.21-2.63-.31-1.24-.1-2.11-.21-2.63-.31-6.4-.83-11.15-1.44-14.25-1.86-2.27-.41-6.2-.93-11.77-1.55-.31,0-.67-.1-1.08-.31-.62-.1-.93-.57-.93-1.39v-1.7c.21-3.2.31-5.99.31-8.36Z"/>
    <path class="cls-7" d="M1677.25,137.33c.41-1.03.85-1.65,1.32-1.86.46-.21,1.21-.05,2.25.46,2.48,1.03,6.14,2.56,11,4.57,4.85,2.01,8.47,3.54,10.84,4.57l5.58,2.32,1.55.77c1.14.72,1.45,1.65.93,2.79l-2.32,4.65c-1.03,2.37-3.35,6.51-6.97,12.39-.31.52-.83,1.26-1.55,2.25-.72.98-1.24,1.68-1.55,2.09-.21.31-.62.77-1.24,1.39-.52.52-1.24.41-2.17-.31-1.03-.72-2.48-1.81-4.34-3.25-1.03-.83-2.84-2.22-5.42-4.18-2.58-1.96-4.54-3.46-5.89-4.49-1.03-.83-2.63-2.04-4.8-3.64-2.17-1.6-3.77-2.81-4.8-3.64l-.77-.77c-.41-.62-.46-1.19-.15-1.7.41-.62.72-1.14.93-1.55,2.69-3.72,5.22-8,7.59-12.86Z"/>
    <path class="cls-5" d="M1669.51,59.73c-.72-.93-1.03-1.6-.93-2.01.1-.41.62-.98,1.55-1.7,2.07-1.65,5.19-4.08,9.37-7.28,4.18-3.2,7.31-5.58,9.37-7.12.62-.41,1.45-1.03,2.48-1.86,1.03-.83,1.86-1.45,2.48-1.86l1.39-.93c1.24-.62,2.17-.36,2.79.77,1.24,1.86,2.22,3.25,2.94,4.18,1.86,2.58,4.24,6.66,7.12,12.24,1.03,2.07,1.81,3.67,2.32,4.8l.46,1.86c.21.72-.21,1.29-1.24,1.7-.62.21-1.5.57-2.63,1.08-1.14.52-1.96.88-2.48,1.08-4.13,1.65-8.52,3.46-13.17,5.42-1.24.52-3.07,1.29-5.5,2.32-2.42,1.03-4.26,1.81-5.5,2.32-.1.1-.28.18-.54.23-.26.05-.44.08-.54.08-.62,0-1.08-.26-1.39-.77-.1-.21-.26-.46-.46-.77-.21-.31-.36-.57-.46-.77-2.17-4.54-4.65-8.88-7.43-13.01Z"/>
  </g>
  <g id="text">
    <g>
      <path d="M406.9,215.69c-2.86,0-5.73-.16-8.55-.47-4.24-.38-9.25-3.1-11.03-9.66-.55-2.04-.66-3.89-.68-4.81v-.45s1.04-14.9,1.04-14.9c.29-5.79,3.93-10.71,9.23-12.63-18-2.98-33.23-15.07-40.96-32.52l-3.07,22.36-.1.54c-1.14,6.03-6.7,10.57-12.93,10.57-.38,0-.75-.02-1.12-.05l-.25-.02-30.24-4.19-.54-.1c-6.65-1.26-11.16-7.41-10.48-14.3l.02-.19,3.35-24.4c-5.9,26.14-13.41,36.59-25.03,37.92l-11.57,1.36-1.31.08c-.49.03-.96.05-1.41.05-6.54,0-10.4-3.38-12.52-6.28-2.09,4.94-7.13,8.75-12.92,9.46l-15.11,1.75-1.01.06c-.45.03-.91.04-1.38.04-6.62,0-12.12-3.2-15.08-8.79l-33.66-62.79-4.84,58.43-.06.42c-.91,6.69-6.77,11.74-13.62,11.74-.24,0-.47,0-.71-.02l-.31-.02-31.98-2.67-.55-.07c-7.25-.98-12.37-7.58-11.57-14.8l6.23-75.3-14.84-1.19-.27-.04c-3.41-.46-6.51-2.12-8.75-4.66-2.48-2.83-3.66-6.53-3.26-10.21l2.4-27.76.07-.54c.9-6.62,6.72-11.61,13.55-11.61.27,0,.55,0,.83.02l28.22,2.31,59.55,4.9.26.04c3.37.46,6.46,2.12,8.7,4.69,2.51,2.86,3.69,6.61,3.28,10.33l-1.99,23.11c1.05-.26,2.06-.41,3.04-.48.35-.02.7-.03,1.03-.03,5.41,0,10.11,2.75,12.59,7.37l4.46,8.02c2.06-2.24,5.26-4.09,10.17-4.82l.2-.03,17.58-1.91.97-.06c.39-.02.77-.04,1.15-.04,1.64,0,3.2.25,4.65.73.21-1.52.68-4.84.68-4.84,1.09-7.04,6.09-11.7,13.05-12.15.43-.03.88-.04,1.32-.04,1.79,0,3.51.22,4.97.45l18.13,2.39c12.55,1.41,14.13,10.74,14.31,13.58,0,.02,0,.03,0,.05.73-1.62,1.76-3.05,3.02-4.23-4.15-6.79-5.61-14.75-4.12-22.61,2.88-15.18,16.16-26.2,31.58-26.2,2.02,0,4.06.19,6.06.57,17.36,3.3,28.79,20.17,25.48,37.61-1.29,6.77-4.65,12.71-9.36,17.2.83,1.28,1.43,2.7,1.78,4.19,5.7-6.3,14.39-12.39,27.61-15.97,5.52-1.49,11.06-2.25,16.48-2.25.65,0,1.3.01,1.95.03,1.22-.81,2.67-1.47,4.38-1.93l1.04-.28.33-.07c6.69-1.34,24.65-4.94,27.31-5.54l.19-.04c.95-.19,1.92-.29,2.88-.29,6.45,0,11.95,4.28,13.67,10.66l.76,2.93c4.72,18.27,9.56,36.99,12.48,54.69,1.71-.75,3.72-1.18,6.04-1.18,1,0,2.07.08,3.17.24.05,0,.1.01.16.02l-2.14-3.24c-6.51-10.1-9.05-19.16-7.77-27.71,2.59-17.25,21.01-28.4,46.93-28.4,4.04,0,8.05.29,11.9.87,2.6.39,6.39.96,9.71,2.98l-3.2-17.47-.03-.26c-.44-3.39.39-6.81,2.32-9.64,2.09-3.05,5.31-5.09,8.89-5.66l22.21-4.13c8.07-3.67,17.23-6.23,26.59-7.44,4.09-.53,8.21-.79,12.27-.79,29.14,0,52.01,12.98,62.74,35.61,4.8,10.07,7.88,20.06,9.15,29.68,9.7-17.25,27.14-27.44,48.35-27.44,5.62,0,11.36.72,17.07,2.15,19.45,4.86,30.09,15.81,35.83,25.3,1.05-.82,2.25-1.48,3.57-1.96l.23-.08,7.58-2.32c7.18-4.44,14.75-7.67,22.5-9.63,5.43-1.37,10.8-2.07,15.96-2.07.99,0,1.99.03,2.98.08,8.2-5.26,16.67-9.02,25.23-11.18,5.46-1.38,10.92-2.08,16.22-2.08,24.95,0,44.57,14.86,52.48,39.75.89,2.8,1.73,5.03,2.61,6.83,1.06-5.19,2.81-10.23,5.19-14.8,5.11-9.81,15.5-22.32,35.94-26.21,3.88-.74,7.88-1.11,11.9-1.11,2.9,0,5.74.19,8.5.57,1.25-.61,2.71-1.11,4.41-1.43l1.16-.22,26.34-2.69c.67-.08,1.44-.12,2.17-.12,7.26,0,13,4.52,14.29,11.25l.28,1.49.11,3.02c.44,12.62.86,24.53,2.47,32.97.64,3.38,1.35,5.54,1.93,6.88l4.73-35.44.05-.25c.55-2.95,1.98-5.49,3.99-7.37-4.01-6.53-5.72-14.49-4.21-22.58,2.84-15.25,16.12-26.32,31.6-26.32,1.98,0,3.98.19,5.94.55,17.37,3.23,28.87,20.06,25.62,37.52-1.26,6.77-4.59,12.71-9.27,17.22,1.73,2.66,2.43,5.89,1.95,8.97l-9.71,72.76-.1.54c-1.12,6.05-6.69,10.61-12.94,10.61-.36,0-.72-.01-1.08-.04l-.25-.02-30.26-4.08-.53-.1c-2.97-.55-5.52-2.08-7.38-4.22-1.69,1.02-3.32,1.51-4.56,1.75-.87.17-1.83.24-3.02.24s-9.79-.14-18.98-4.04c-6.47,4.07-13.61,6.91-20.96,8.31-3.62.69-7.33,1.04-11.01,1.04-20.15,0-38.08-10.09-47.81-25.58-1.13,1.81-2.06,3.28-2.06,3.28-2.6,3.92-5.78,6.31-9.74,7.31-1.27.32-2.92.48-4.9.48-8.08,0-17.25-2.5-25.25-8.58l.27.89.06.24c1.7,6.73-1.89,13.52-8.34,15.78l-.17.06-27.12,8.42-.56.14c-.99.25-2.01.38-3.04.38-2.13,0-4.17-.54-5.99-1.52-1.5,2.77-3.98,5-7.17,6.12l-.2.07-27.3,8.31-.53.13c-1,.25-2.02.38-3.05.38-5.49,0-10.44-3.6-12.33-8.97l-.07-.2-13.07-42.93c-8.45,25.57-34.28,37.08-57.03,37.08-5.1,0-9.99-.57-14.53-1.71-14.25-3.56-26.37-12-34.14-23.77-3.44-5.21-5.88-10.88-7.27-16.8-3.44,6.88-8.11,13.26-13.99,19.05-14.4,14.19-35.35,23.67-59,26.71-5.57.72-11.32,1.08-17.08,1.08-1.87,0-3.78-.04-5.66-.11l-.39-.02-.38-.04c-.54-.06-1.25-.07-2.01-.08h-.94s-.48-.07-.48-.07c-12.63-1.4-16.74-9.66-17.96-16.34l-9.46-51.68c-2.3,2.22-5.52,3.53-9.16,3.53-.41,0-.84-.02-1.27-.05.3.46.57.86.77,1.17,6.84,10.11,9.68,19.63,8.39,28.22-3.24,21.64-28.81,29.32-49.72,29.32-4.17,0-8.25-.3-12.13-.88l-1.63-.25c-3.99-.6-7.13-1.98-9.41-4.12-1.91,9-5.6,17.13-11,24.05-8.17,10.48-20,18.05-34.19,21.89-6.76,1.83-13.74,2.76-20.75,2.76ZM732.01,111.16c-4.07,0-5.53,5.36-5.68,5.97-.66,2.64.04,4.56.74,5.7.91,1.47,2.35,2.55,3.95,2.95.61.15,1.18.23,1.69.23,3.68,0,5.1-4.95,5.35-5.94,1.79-7.18-1.93-8.11-3.93-8.61-.78-.19-1.49-.29-2.13-.29ZM410.62,111.6c-.47,0-.96.07-1.47.21-4.1,1.11-3.43,5.31-2.96,7.07.07.27,1.86,6.7,5.58,6.7.57,0,1.23-.1,1.96-.3.47-.13,1.07-.41,1.66-.75-.92-3.9-1.96-7.98-3.09-12.19-.19-.41-.53-.74-1.68-.74ZM988.06,112.35c-.81.17-1.74.57-2.53,2.14-.78,1.54-1.07,3.67-.74,5.41.26,1.39,1.28,4.61,5.03,4.61.16,0,.31,0,.48-.02-.36-1.56-.69-3.12-.99-4.69-.45-2.37-.86-4.84-1.25-7.45ZM607.47,120.27c3.57-1.36,6.64-3.53,8.94-6.36,3.57-4.39,5.03-10.03,4.22-16.32-.6-4.69-3.64-20-17.42-20-1,0-2.07.07-3.17.21-.11.01-.22.03-.33.04l7.76,42.42ZM1604.02,183.92c-1.34,0-2.69-.18-4-.54-5.62-1.54-16.55-8.76-22.23-21.97l-.22.99-.07.24c-1.61,5.88-6.71,9.83-12.7,9.83-.78,0-1.57-.07-2.34-.21l-.35-.07-27.56-5.99-.54-.15c-3.14-.86-5.68-2.83-7.33-5.42-2.02,1.26-4.39,1.97-6.93,1.97-.78,0-1.56-.07-2.32-.21l-.21-.04-27.85-6.21-.52-.14c-3.99-1.09-7.02-4-8.46-7.67-1.33,1.81-2.79,3.57-4.37,5.28-9.7,10.49-23.41,18.11-36.66,20.38-3.35.57-6.76.87-10.13.87-20.11,0-37.47-9.96-47.04-25.71.08,1.49-.03,2.96-.34,4.38-.98,4.43-3.67,8.08-7.99,10.86l-.22.14c-11.22,6.78-23.72,10.37-36.14,10.37-4.68,0-9.34-.5-13.87-1.5-14.53-3.2-27.11-11.24-35.41-22.65-8.87-12.2-11.95-27.16-8.66-42.12,6.12-27.84,27.15-44.47,56.24-44.47,5.38,0,10.83.6,16.21,1.78,14.78,3.25,28.93,11.31,32.69,20.74,8.66-11.58,22.27-19.79,39.45-22.73,3.85-.66,7.67-.99,11.37-.99,27.52,0,46.46,18.63,52.87,38.96l8.44-37.82.15-.53c1.54-5.62,6.69-9.56,12.51-9.56.73,0,1.47.06,2.2.19l.24.04,7.75,1.71c1.11-.04,2.22-.06,3.32-.06,7.25,0,14.32.93,21,2.76,6.44,1.76,12.29,4.31,17.46,7.6,1.82-.1,3.62-.15,5.39-.15,7.75,0,15.18.96,22.07,2.85,31.24,8.56,47.81,35.34,41.23,66.62-1.8,8.63-1.5,12.59,1.24,16.3l.16.23c1.16,1.67,4.69,6.73,3.01,12.83-.94,3.43-3.27,6.32-6.46,8.04-.8.52-1.66,1-2.55,1.5-1.49.84-3.48,1.93-5.46,3.01-3.91,2.14-7.82,4.24-7.82,4.24l-.21.11c-2.79,1.42-5.43,2.11-8.07,2.11ZM1341.19,113.19c-1.95,0-4.37,0-5.66,5.9-1.24,5.65,2.83,7.43,5.36,7.99.93.2,1.93.31,2.99.31,3.79,0,8.07-1.32,12.4-3.81,1.52-.93,3.19-1.6,4.9-1.99-.21,0-.43.02-.65.02-.97,0-1.93-.11-2.87-.31-2.7-.59-5.25-2.15-7.17-4.39l-.17-.19-.16-.2c-.56-.66-3.09-2.3-6.3-3-.93-.21-1.83-.31-2.68-.31ZM1364.43,121.22c1.02,0,2.03.11,3.01.32,2.81.62,5.24,2.11,7.11,4.3-.51-4.79-.46-9.44.09-13.9l-1.73,2.6c-2.14,3.42-5.51,5.82-9.25,6.69.26-.01.52-.02.78-.02ZM1433.59,110.92c-.54,0-1.15.06-1.8.17-2.79.48-5.89,2.31-4.86,8.34.72,4.22,3.91,6.11,6.75,6.11.35,0,.69-.03,1.02-.09,2.27-.39,3.05-1.33,3.51-2.2.78-1.45,1.01-3.64.63-5.87-.74-4.29-2.5-6.46-5.26-6.46ZM1202.03,174.86c-7.69,0-36.7-10.83-37.86-43.31l-.04-1.03-.46,27.82c.04,6.81-5.55,12.7-12.39,12.94l-.55.02-30.45-.43h-.17c-6.95-.34-12.38-5.85-12.63-12.83v-.26s1.25-78.55,1.25-78.55v-.19c.38-6.8,5.88-12.31,12.53-12.55l.57-.02,15.83.28c6.04-1.39,11.76-2.17,17.44-2.37,1-.04,2.01-.05,3-.05,35.67,0,61.4,22.61,62.56,54.99l.18,4.95c.2,5.71,1.41,9.29,4.21,12.22,3.33-10.13,12.17-18.04,23.42-19.63,1.32-.19,2.67-.28,4-.28,14.25,0,26.51,10.69,28.51,24.88,1.07,7.6-.88,15.17-5.5,21.3-4.62,6.14-11.35,10.11-18.95,11.18-1.36.19-2.74.29-4.11.29-10.71,0-20.29-5.98-25.24-14.92-.75.7-1.55,1.34-2.35,1.98-1.38,1.11-3.23,2.57-5.07,4.01-3.17,2.49-6.35,4.94-7.11,5.53-3,2.5-6.53,3.89-10.22,4.02h-.18s-.23,0-.23,0Z"/>
      <path d="M101.08,35c.08,0,.16,0,.24,0l28,2.29,59.28,4.87c1.93.26,3.66,2.01,3.38,4.09l-2.36,27.38c-.25,1.86-1.86,3.39-3.84,3.39-.08,0-.16,0-.25,0l-23.64-2-7.09,85.62-.02.15c-.25,1.86-1.97,3.11-3.72,3.11-.06,0-.13,0-.19,0l-31.73-2.65-.3-.04c-1.93-.26-3.2-2.1-2.95-3.88l7.07-85.47-24.56-1.97c-2.08-.28-3.66-2.01-3.4-3.94l2.4-27.68.04-.3c.23-1.71,1.79-2.96,3.64-2.96M608.83,35.23c21.82,0,43.58,8.55,53.7,29.9,4.55,9.55,7.23,18.58,8.3,26.91,5.41,42.1-28.52,69.9-70.77,75.34-5.16.66-10.45,1-15.8,1-1.75,0-3.5-.04-5.26-.11-1.23-.15-2.44-.14-3.5-.16-5.06-.56-8.2-2.58-9.22-8.19l-19.82-108.3c-.25-1.93,1.01-3.91,2.94-4.16l23.63-4.4c7.41-3.52,16.02-5.99,24.79-7.12,3.63-.47,7.31-.71,10.99-.71M599.44,131.92c1.21,0,2.4-.16,3.59-.31,17.26-2.22,29.95-16.4,27.52-35.3-.31-2.39-3.83-28.72-27.34-28.72-1.41,0-2.89.09-4.45.29-3.57.46-7.21,1.53-10.52,2.86l11.19,61.17M1082.18,35.51c1.36,0,2.73.12,4.12.38,11.94,2.22,19.87,13.76,17.62,25.86-1.97,10.59-11.27,18.02-21.67,18.02-1.33,0-2.68-.12-4.03-.37-12.09-2.25-20.01-13.79-17.79-25.74,1.99-10.71,11.27-18.15,21.77-18.15M338.74,35.54c1.38,0,2.79.13,4.2.4,11.94,2.27,19.82,13.84,17.52,25.92-2,10.55-11.29,17.94-21.66,17.94-1.36,0-2.73-.13-4.12-.39-12.08-2.29-19.96-13.87-17.7-25.8,2.03-10.67,11.29-18.06,21.75-18.07M1509.5,63.99c.17,0,.35.01.52.04l8.8,1.95c1.41-.08,2.81-.11,4.19-.11,6.49,0,12.63.84,18.36,2.41,6.51,1.78,12.31,4.46,17.35,8.18,2.78-.25,5.5-.38,8.14-.38,7.04,0,13.54.88,19.43,2.49,25.46,6.98,39.72,28.15,34.09,54.92-2,9.56-2.35,17.09,2.98,24.3.67.96,2.01,2.88,1.57,4.47-.2.72-.73,1.51-1.79,2-.08.29-15.59,8.64-15.59,8.64-1.38.7-2.5,1.02-3.54,1.02-.46,0-.91-.06-1.35-.19-2.03-.56-23.51-11.26-17.43-40.24,3.56-15.82,2.11-22.44-5.82-25.86l-11.55,52.36c-.42,1.53-1.65,2.48-3.05,2.48-.19,0-.38-.02-.57-.05l-27.3-5.93-.29-.08c-1.45-.4-2.25-2.02-1.96-3.65l6.92-30.92c3.28-14.81,1.91-21.72-7.01-24.94l-11.79,53.22c-.42,1.53-1.65,2.48-3.05,2.48-.19,0-.38-.02-.57-.05l-27.41-6.11-.29-.08c-1.45-.4-2.25-2.02-1.96-3.65l17.01-76.21.08-.29c.38-1.4,1.58-2.22,2.87-2.22M444.87,68.78c1.95,0,3.51,1.38,4.02,3.27,6.6,25.56,13.59,51.95,15.26,74.81,2.37,32.3-16.54,50.31-39.12,56.42-5.92,1.6-12.06,2.41-18.14,2.41-2.54,0-5.08-.14-7.58-.43-1.42-.08-2.02-1.16-2.34-2.32-.23-.87-.32-1.78-.34-2.39l1.03-14.58c.07-2.04,1.39-3.48,2.98-3.91.29-.08.62-.01.91-.09,4.18-.04,7.78-.55,10.96-1.41,12.16-3.29,17.38-12.16,17.72-24.68-4.1,2.66-8.78,4.86-13.42,6.12-3.68.99-7.44,1.48-11.17,1.48-18.78,0-37.13-12.33-43.21-34.79-4.74-17.52-.07-41.62,30.48-49.89,4.67-1.26,9.37-1.9,13.87-1.9,2.19,0,4.34.15,6.41.46,0-1.71,1.23-2.35,2.53-2.71l.72-.2s24.18-4.83,27.55-5.59c.3-.06.59-.09.88-.09M411.77,135.57c1.41,0,2.93-.2,4.57-.64,3.47-.94,7.68-3.78,9.49-6.29l.61-.63c-1.28-5.87-2.86-12.28-4.62-18.8-1.89-5.2-6.36-7.61-11.19-7.61-1.35,0-2.72.19-4.08.55-9.12,2.47-12.19,11.22-10,19.33,1.33,4.92,5.7,14.09,15.23,14.09M876.25,71.29c19.74,0,36.19,11.51,42.95,32.78,2.97,9.31,6.37,16.03,14.56,19.68,1.06.51,3.17,1.52,3.57,3.12.18.73.11,1.67-.58,2.62.07.29-9.31,15.19-9.31,15.19-1.23,1.86-2.39,2.77-3.85,3.14-.32.08-1.19.18-2.45.18-6.76,0-24.97-2.85-32.54-26.61-4.34-14.35-8.53-19.75-15.92-19.75-.6,0-1.23.04-1.88.11l15.73,51.26c.44,1.74-.39,3.35-1.96,3.9l-26.68,8.29-.29.07c-.2.05-.4.08-.6.08-1.25,0-2.42-.94-2.89-2.29l-9.2-30.32c-3.94-12.87-8-18.52-15.4-18.52-.94,0-1.93.09-2.98.27l15.95,52.13c.44,1.74-.39,3.35-1.95,3.9l-26.86,8.18-.29.07c-.2.05-.4.08-.6.08-1.25,0-2.42-.94-2.89-2.29l-22.74-74.7-.07-.29c-.4-1.6.47-3.06,1.88-3.57l8.62-2.64c6.79-4.35,13.77-7.35,20.75-9.11,4.59-1.16,9.09-1.76,13.51-1.76,1.89,0,3.76.11,5.62.33,8.43-5.84,16.89-9.68,25.04-11.74,4.71-1.19,9.32-1.77,13.77-1.77M1026.96,71.86c3.01,0,4.16,1.54,4.46,3.12l.14.74c.49,13.8.87,27.01,2.72,36.74,1.68,8.84,4.51,14.87,9.7,16.48,1.61.46,3.4,1.03,3.68,2.51.06.29,0,.76-.19,1.41l-5.74,19.57c-.85,2.76-2.07,4.36-3.99,4.73-.21.04-.6.07-1.15.07-3.33,0-12.31-.96-19.77-5.7-6.91,5.44-14.53,8.72-22.04,10.15-3.06.58-6.12.86-9.14.86-21.32,0-40.83-13.95-44.79-34.73-3.37-17.68,4.31-45.56,33.48-51.11,3.36-.64,6.75-.94,10.04-.94,3.92,0,7.7.42,11.08,1.19.69-1.2,1.93-1.89,3.7-2.23l.74-.14,25.91-2.64c.41-.05.8-.07,1.16-.07M989.83,134.5c1.09,0,2.22-.11,3.39-.33,2.8-.53,5.93-1.74,9.04-3.86-1.17-3.75-2.25-7.82-3.12-12.39-.73-3.83-1.34-7.84-1.89-12.31-1.86-2.09-5.04-3.34-8.42-3.34-.84,0-1.7.08-2.55.24-9.28,1.77-12.73,11.74-11.3,19.25,1.38,7.24,7.01,12.74,14.85,12.74M270.84,72.1c1.17,0,2.41.17,3.56.35l18.34,2.42c4.39.47,5.4,2.2,5.54,4.3.05.75-.04,1.66-.14,2.41-6.96,59.52-14.63,75.8-23.73,76.84l-11.34,1.34-1.05.07c-.27.02-.52.03-.77.03-1.96,0-3.31-.58-4.48-2.24-1.02-1.74-8.38-17.95-11.2-24.38-.52-1.15-.83-1.44-.99-1.44,0,0,0,0,0,0-.3.02-.39.93-.5,1.54-1.06,6.83-3.4,21.71-4.35,25.68-.33,1.83-2.61,3.78-5.15,4.09l-14.77,1.71-.75.05c-.25.02-.49.02-.74.02-2.45,0-4.85-.84-6.25-3.48l-34.88-65.08c-.51-.87-1.18-2.03-1.26-3.22-.09-1.35.72-2.75,3.65-3.99l21.39-8.6c1.03-.37,1.92-.58,2.67-.62.13,0,.26-.01.39-.01,1.88,0,3.16.92,3.81,2.15l17.35,31.19c.32.54.61.69.89.69.02,0,.04,0,.06,0,.3-.02.72-.5.81-1.4.27-5.13.47-15.96.53-17.32.09-3.31,1.67-4.32,5.25-4.85l17.16-1.86.75-.05c.17-.01.34-.02.5-.02,1.82,0,3.07.72,4.03,2.73l5.06,17.71c.18.43.51,1,.8,1,0,0,0,0,.01,0,.45-.03.68-1.1,5.31-34.01.42-2.73,1.87-3.58,3.82-3.71.22-.01.45-.02.67-.02M1435.53,72.95c26.64,0,41.76,20.41,44.72,37.64,4.94,28.83-21.57,49.96-42.56,53.56-2.82.48-5.65.72-8.45.72-21.04,0-40.31-13.46-44.24-36.43-5.22-30.46,14.84-50.18,40.86-54.64,3.38-.58,6.6-.85,9.68-.85M1433.68,135.53c.91,0,1.81-.08,2.71-.23,10.5-1.8,13.76-11.19,12.31-19.61-.44-2.58-3.05-14.77-15.12-14.77-1.09,0-2.25.1-3.49.31-12.42,2.13-14.17,13.23-13.03,19.88,1.56,9.11,9.03,14.42,16.61,14.42M729.08,73.09c4.82,0,9.74.62,14.64,1.85,32.16,8.04,39.69,36.66,34.97,55.58-5.81,23.27-28.91,33.29-48.43,33.29-4.28,0-8.39-.48-12.1-1.41-23.72-5.93-40.24-28.3-33.84-53.91,6.06-24.24,24.41-35.4,44.76-35.4M732.71,136c8.01,0,13.27-6.38,15.05-13.52.69-2.76,3.64-17.02-11.21-20.73-1.62-.41-3.14-.59-4.55-.59-9.21,0-13.96,7.87-15.38,13.54-2.51,10.04,3.68,18.7,11.97,20.77,1.44.36,2.82.53,4.12.53M1335.81,74.15c4.75,0,9.5.54,14.07,1.55,16.26,3.58,26.56,12.6,25.76,16.26-.06.29-.16.73-.37.99l-10.78,16.21c-.84,1.41-2.4,2.43-3.95,2.43-.24,0-.48-.02-.72-.08-.59-.13-1.25-.58-1.74-1.15-2.15-2.78-6.93-5.52-12.05-6.64-1.05-.23-2.79-.54-4.83-.54-5.38,0-12.89,2.17-15.43,13.75-2.16,9.81,3.46,17.81,12.98,19.9,1.61.35,3.33.54,5.14.54,5.26,0,11.26-1.58,17.55-5.23.84-.54,1.94-.93,3.01-.93.29,0,.58.03.86.09,1.03.23,2.07,1.07,2.71,3.05,1.54,5.56,2.72,8.58,4,13.93.25.97.31,2.06.09,3.09-.39,1.76-1.47,3.21-3.62,4.58-10.25,6.19-20.91,8.93-30.97,8.93-4.03,0-7.95-.44-11.72-1.27-24.32-5.35-42.12-27.07-36.45-52.86,5.85-26.61,26.13-36.61,46.47-36.61M1158.11,74.32c29.16,0,51.57,17.55,52.57,45.35l.18,4.95c.3,8.39,2.49,15.07,8.84,20.54.93.72,2.48,2.16,2.54,3.81.03.9-.39,1.82-1.41,2.6.01.3-14.45,11.47-14.45,11.47-1.46,1.25-2.94,1.76-4.29,1.81-.02,0-.04,0-.06,0-2.96,0-26.92-7.17-27.87-33.67l-.18-5.1c-.56-15.74-8.45-22.06-19.41-22.27l-.9,54.52c.05,1.5-1.25,2.9-2.75,2.95h-.3s-30.03-.41-30.03-.41c-1.8-.09-3.05-1.39-3.12-3.19l1.25-78.09c.09-1.65,1.39-3.05,2.89-3.1h.3s16.82.29,16.82.29c5.8-1.41,11.33-2.21,16.72-2.4.88-.03,1.77-.05,2.64-.05M518.18,76.78c3.56,0,7.08.26,10.42.76,5.79.87,7.18,1.68,7.82,4.51l4.09,18.21c.21.64.14,1.08.07,1.53-.19,1.3-1.32,1.78-2.74,1.78-.37,0-.75-.03-1.15-.09l-.59-.09c-1.71-.26-3.23-.37-4.58-.37-5.67,0-8.26,2.06-8.62,4.46-.38,2.52,1.42,5.67,6.13,12.75,5.71,8.44,7.68,15.56,6.83,21.2-2.18,14.53-21.84,20.8-39.83,20.8-3.67,0-7.28-.26-10.65-.77l-1.63-.25c-3.26-.49-4.66-1.3-5.17-3.96l-3.95-18.18c-.08-.47-.16-.93-.12-1.23.24-1.57,1.8-1.96,3.32-1.96.64,0,1.27.07,1.8.15,1.16.15,2.26.23,3.28.23,6.69,0,10.34-3.06,10.8-6.15.29-1.93-1.28-4.59-2.96-7.57l-3.34-5.05c-5.41-8.4-7.13-15.17-6.28-20.81,2.08-13.88,19.93-19.88,37.04-19.88M320.27,80.85c.13,0,.26,0,.4.02l29.75,4.12.29.06c1.47.28,2.55,1.86,2.27,3.33l-9.97,72.61-.06.29c-.26,1.39-1.69,2.43-3.11,2.43-.08,0-.17,0-.25-.01l-29.75-4.12-.29-.06c-1.62-.31-2.55-1.86-2.39-3.51l9.94-72.46c.31-1.64,1.56-2.7,3.17-2.7M1063.81,80.89c.13,0,.25,0,.38.02l29.77,4.01.3.05c1.47.27,2.55,1.85,2.28,3.32l-9.7,72.65-.05.29c-.26,1.4-1.68,2.44-3.11,2.44-.08,0-.16,0-.24-.01l-29.77-4.01-.3-.05c-1.62-.3-2.56-1.85-2.4-3.5l9.67-72.5c.31-1.64,1.56-2.72,3.17-2.72M1252.48,126.56c9.21,0,17.28,6.9,18.61,16.27,1.45,10.25-5.7,19.74-15.94,21.19-.91.13-1.82.19-2.71.19-9.29,0-17.31-6.76-18.63-16.11-1.45-10.25,5.67-19.89,16.07-21.35.87-.12,1.74-.18,2.6-.18M101.08,15h0c-11.8,0-21.89,8.71-23.46,20.27l-.04.29-.07.49-.04.49-2.37,27.42c-1.32,12.54,7.79,24.01,20.61,25.75l.54.07.55.04,4.57.37-5.39,65.19c-.6,5.81.97,11.59,4.48,16.34,3.74,5.07,9.46,8.47,15.69,9.31l.29.04.52.07.52.04,31.73,2.65.3.03.3.02c.42.02.83.03,1.25.03,11.84,0,21.95-8.78,23.53-20.41l.02-.15.07-.52.04-.52,2.02-24.43,17.68,32.98c4.69,8.8,13.62,14.06,23.89,14.06.67,0,1.35-.02,2.03-.07l.75-.05.5-.03.5-.06,14.77-1.71h.08s.08-.02.08-.02c4.94-.61,9.49-2.58,13.2-5.49,3.33,1.57,7.05,2.38,11.01,2.38.67,0,1.37-.02,2.07-.07l1.04-.07.52-.03.52-.06,11.32-1.33c6.51-.76,11.64-3.48,15.69-7.04,3.29,4,7.94,6.88,13.4,7.92l.29.06.49.09.5.07,29.75,4.12.49.07.5.04c.66.06,1.34.09,2.01.09,10.68,0,19.93-7.25,22.47-17.41,4.99,4.68,10.67,8.52,16.84,11.38-.82,2.23-1.31,4.62-1.45,7.1l-1.01,14.36-.06.9.02.91c.03,1.68.24,4.3,1.03,7.21,2.58,9.54,10.27,16.14,19.71,17.01,3.13.34,6.33.52,9.52.52,7.88,0,15.74-1.04,23.36-3.11,16.31-4.41,29.96-13.19,39.47-25.4,3.91-5.01,7.05-10.53,9.41-16.48.53.11,1.08.2,1.64.28l1.63.24c4.37.66,8.95.99,13.62.99,12.45,0,24.56-2.4,34.12-6.75,6.72-3.06,12.27-7.08,16.49-11.88,2.57,13.91,12.29,22.81,26.68,24.4l.95.11h.96s.48.02.48.02c.35,0,.83,0,1.03.02l.69.08.77.03c2.02.08,4.06.12,6.07.12,6.18,0,12.36-.39,18.35-1.16,25.8-3.32,48.8-13.8,64.74-29.51,1.75-1.72,3.4-3.5,4.96-5.32.3.49.61.97.93,1.45,9.15,13.86,23.38,23.79,40.06,27.96,5.33,1.33,11.03,2.01,16.95,2.01,14.1,0,28.2-3.84,39.71-10.81,5.48-3.32,10.28-7.25,14.34-11.72l6.42,21.09.12.41.14.4c3.29,9.36,12.04,15.65,21.76,15.65,1.85,0,3.71-.23,5.5-.68l.28-.07.47-.12.46-.14,26.86-8.18.41-.12.4-.14c2.75-.97,5.21-2.4,7.3-4.18.84.09,1.68.14,2.54.14,1.85,0,3.71-.23,5.5-.68l.28-.07.52-.13.52-.16,26.68-8.29.34-.11.34-.12c5.65-1.98,10.06-5.91,12.7-10.82,7.22,2.57,13.55,3.04,17.25,3.04,4.22,0,6.57-.59,7.35-.79,3.39-.86,6.46-2.35,9.19-4.46,12.04,12.25,29.19,19.76,47.96,19.76,4.31,0,8.64-.41,12.88-1.22,6.94-1.32,13.71-3.74,20.03-7.12,8.73,2.83,16.14,3.03,18.04,3.03s3.4-.13,4.9-.42c.29-.05.6-.12.94-.2,2.2,1.27,4.64,2.18,7.27,2.67l.29.05.49.09.5.07,29.77,4.01.51.07.51.04c.63.05,1.27.08,1.9.08,8.14,0,15.43-4.19,19.58-10.68,4.02,4.58,9.82,7.53,16.4,7.85l.33.02h.33s30.03.43,30.03.43h.5s.5-.01.5-.01h.3c8.14-.3,15.15-4.84,18.96-11.42,10.7,10.39,24,14.99,31.43,14.99.3,0,.59,0,.86-.02,5.84-.23,11.36-2.37,16.02-6.2.91-.71,3.75-2.9,6.66-5.18.5.47,1,.94,1.53,1.38,7.04,6.05,16.04,9.38,25.33,9.38,1.83,0,3.68-.13,5.5-.39,12.55-1.77,22.86-9.4,28.54-19.74,9.3,9.43,21.43,16.08,35.01,19.07,5.23,1.15,10.62,1.73,16.02,1.73,14.24,0,28.53-4.08,41.31-11.81l.22-.13.22-.14c2.28-1.46,4.15-3.04,5.7-4.67,11.54,10.52,27.06,16.72,44.28,16.72,3.94,0,7.92-.34,11.82-1.01,14.11-2.42,28.61-10.02,39.52-20.6,1.72,1.02,3.6,1.83,5.62,2.39l.29.08.46.13.47.1,27.41,6.11.42.09.42.08c1.35.24,2.72.36,4.08.36,1.46,0,2.89-.14,4.29-.41,2.15,1.56,4.6,2.76,7.31,3.5l.29.08.52.14.53.11,27.3,5.93.35.08.35.06c1.36.24,2.74.37,4.12.37,4.44,0,8.65-1.29,12.25-3.56,6.68,7.71,14.81,12.6,20.32,14.11,2.18.6,4.41.9,6.64.9,4.26,0,8.38-1.04,12.61-3.19l.21-.11.2-.11s3.93-2.12,7.87-4.27c2.33-1.27,4.2-2.3,5.57-3.07.83-.47,1.76-.99,2.72-1.59,5.43-3.03,9.4-8.05,11.04-14.03,1.93-7.04.43-14.17-4.45-21.18l-.16-.23-.17-.23c-.31-.42-.96-1.3.51-8.33,3.82-18.17,1.03-35.36-8.08-49.7-8.84-13.91-22.77-23.8-40.3-28.6-7.76-2.13-16.07-3.2-24.72-3.2-.93,0-1.86.01-2.8.04-5.29-3.02-11.12-5.41-17.4-7.13-7.55-2.07-15.5-3.12-23.65-3.12-.79,0-1.58,0-2.38.03l-6.28-1.39-.48-.11-.48-.08c-1.28-.22-2.58-.33-3.88-.33-10.32,0-19.43,6.96-22.16,16.94l-.08.29-.13.46-.1.47-2.79,12.51c-1.13-1.28-2.31-2.52-3.54-3.71-12.14-11.78-27.76-18-45.17-18h0c-4.26,0-8.65.38-13.06,1.14-14.29,2.45-27.11,8.43-37.02,17.15-1.41-1.27-3.01-2.55-4.82-3.81-5.15-3.61-13.93-8.5-26.47-11.25-6.09-1.34-12.26-2.02-18.36-2.02h0c-33.62,0-58.91,20.05-66.01,52.32-.28,1.29-.53,2.58-.73,3.88-5.06-2.43-10.7-3.78-16.59-3.78-1.8,0-3.61.13-5.4.38-6.15.87-11.87,3.14-16.82,6.59-1.9-16.76-9.75-31.63-22.45-42.29-13.01-10.92-30.66-16.93-49.69-16.93v20-20c-1.12,0-2.25.02-3.36.06-5.94.21-11.88.98-18.11,2.35l-12.37-.22c-.53-19.45-14.51-36.59-34.33-40.28-2.56-.48-5.18-.72-7.77-.72h0c-20.29,0-37.71,14.51-41.43,34.49-.34,1.81-.55,3.63-.65,5.44-3.79-2.29-8.29-3.58-13.13-3.58-1.07,0-2.16.06-3.26.18l-25.83,2.63-.86.09-.85.16-.74.14c-1.35.26-2.65.6-3.9,1.03-2.34-.23-4.73-.34-7.14-.34-4.65,0-9.28.43-13.77,1.29-16.61,3.16-30.35,12.07-39.33,25.35-11.67-19.52-31.62-31.1-55.02-31.1-6.13,0-12.41.8-18.67,2.38-8.67,2.19-17.23,5.81-25.51,10.8-.08,0-.17,0-.25,0-5.98,0-12.18.8-18.41,2.37-8.34,2.11-16.46,5.51-24.18,10.13l-3.82,1.17c-9-10.97-21.7-18.83-36.85-22.61-6.5-1.62-13.05-2.45-19.49-2.45h0c-14.81,0-28.51,4.33-39.61,12.52-1.32.98-2.6,2-3.84,3.08-1.42-4.04-3.11-8.1-5.04-12.16-6.6-13.91-17.47-25.05-31.43-32.16-11.72-5.97-25.66-9.13-40.32-9.13v20V15.23c-4.49,0-9.04.29-13.55.87-9.9,1.27-19.62,3.94-28.31,7.74l-20.92,3.89c-12.4,2.03-21.06,13.71-19.43,26.43l.07.53.1.52.36,1.99c-2.96-.29-5.96-.44-8.99-.44-21.08,0-38.1,6.63-47.95,17.87-.41-1.6-.83-3.2-1.24-4.8l-.72-2.8-.03-.11-.03-.11c-2.87-10.63-12.47-18.05-23.33-18.05-1.63,0-3.28.17-4.89.5l-.19.04-.19.04c-2.29.51-17.82,3.64-27.08,5.49l-.66.13-.64.17-.72.2c-1.5.4-2.92.93-4.25,1.56-6.12.05-12.37.92-18.56,2.6-2.48.67-4.82,1.42-7.04,2.24,2.07-21.44-12.5-41.36-33.99-45.44-2.61-.5-5.28-.75-7.93-.75h0c-20.21,0-37.62,14.44-41.4,34.33-.34,1.78-.56,3.57-.67,5.35-.5-.08-1-.15-1.52-.21l-17.93-2.36c-1.81-.28-3.97-.55-6.38-.55-.66,0-1.32.02-1.97.06-10.28.67-18.27,6.97-21.31,16.44l-17.01,1.85-.39.04-.39.06c-1.73.26-3.34.62-4.85,1.08-3.16-5.32-8.23-9.14-14.12-10.81l1.08-12.56c1.34-12.63-7.77-24.17-20.59-25.91l-.53-.07-.53-.04-59.28-4.87-28-2.29-.23-.02h-.23c-.47-.04-.95-.05-1.42-.05h0Z"/>
    </g>
    <g>
      <path class="cls-2" d="M406.9,200.69c-2.86,0-5.73-.16-8.55-.47-4.24-.38-9.25-3.1-11.03-9.66-.55-2.04-.66-3.89-.68-4.81v-.45s1.04-14.9,1.04-14.9c.29-5.79,3.93-10.71,9.23-12.63-18-2.98-33.23-15.07-40.96-32.52l-3.07,22.36-.1.54c-1.14,6.03-6.7,10.57-12.93,10.57-.38,0-.75-.02-1.12-.05l-.25-.02-30.24-4.19-.54-.1c-6.65-1.26-11.16-7.41-10.48-14.3l.02-.19,3.35-24.4c-5.9,26.14-13.41,36.59-25.03,37.92l-11.57,1.36-1.31.08c-.49.03-.96.05-1.41.05-6.54,0-10.4-3.38-12.52-6.28-2.09,4.94-7.13,8.75-12.92,9.46l-15.11,1.75-1.01.06c-.45.03-.91.04-1.38.04-6.62,0-12.12-3.2-15.08-8.79l-33.66-62.79-4.84,58.43-.06.42c-.91,6.69-6.77,11.74-13.62,11.74-.24,0-.47,0-.71-.02l-.31-.02-31.98-2.67-.55-.07c-7.25-.98-12.37-7.58-11.57-14.8l6.23-75.3-14.84-1.19-.27-.04c-3.41-.46-6.51-2.12-8.75-4.66-2.48-2.83-3.66-6.53-3.26-10.21l2.4-27.76.07-.54c.9-6.62,6.72-11.61,13.55-11.61.27,0,.55,0,.83.02l28.22,2.31,59.55,4.9.26.04c3.37.46,6.46,2.12,8.7,4.69,2.51,2.86,3.69,6.61,3.28,10.33l-1.99,23.11c1.05-.26,2.06-.41,3.04-.48.35-.02.7-.03,1.03-.03,5.41,0,10.11,2.75,12.59,7.37l4.46,8.02c2.06-2.24,5.26-4.09,10.17-4.82l.2-.03,17.58-1.91.97-.06c.39-.02.77-.04,1.15-.04,1.64,0,3.2.25,4.65.73.21-1.52.68-4.84.68-4.84,1.09-7.04,6.09-11.7,13.05-12.15.43-.03.88-.04,1.32-.04,1.79,0,3.51.22,4.97.45l18.13,2.39c12.55,1.41,14.13,10.74,14.31,13.58,0,.02,0,.03,0,.05.73-1.62,1.76-3.05,3.02-4.23-4.15-6.79-5.61-14.75-4.12-22.61,2.88-15.18,16.16-26.2,31.58-26.2,2.02,0,4.06.19,6.06.57,17.36,3.3,28.79,20.17,25.48,37.61-1.29,6.77-4.65,12.71-9.36,17.2.83,1.28,1.43,2.7,1.78,4.19,5.7-6.3,14.39-12.39,27.61-15.97,5.52-1.49,11.06-2.25,16.48-2.25.65,0,1.3.01,1.95.03,1.22-.81,2.67-1.47,4.38-1.93l1.04-.28.33-.07c6.69-1.34,24.65-4.94,27.31-5.54l.19-.04c.95-.19,1.92-.29,2.88-.29,6.45,0,11.95,4.28,13.67,10.66l.76,2.93c4.72,18.27,9.56,36.99,12.48,54.69,1.71-.75,3.72-1.18,6.04-1.18,1,0,2.07.08,3.17.24.05,0,.1.01.16.02l-2.14-3.24c-6.51-10.1-9.05-19.16-7.77-27.71,2.59-17.25,21.01-28.4,46.93-28.4,4.04,0,8.05.29,11.9.87,2.6.39,6.39.96,9.71,2.98l-3.2-17.47-.03-.26c-.44-3.39.39-6.81,2.32-9.64,2.09-3.05,5.31-5.09,8.89-5.66l22.21-4.13c8.07-3.67,17.23-6.23,26.59-7.44,4.09-.53,8.21-.79,12.27-.79,29.14,0,52.01,12.98,62.74,35.61,4.8,10.07,7.88,20.06,9.15,29.68,9.7-17.25,27.14-27.44,48.35-27.44,5.62,0,11.36.72,17.07,2.15,19.45,4.86,30.09,15.81,35.83,25.3,1.05-.82,2.25-1.48,3.57-1.96l.23-.08,7.58-2.32c7.18-4.44,14.75-7.67,22.5-9.63,5.43-1.37,10.8-2.07,15.96-2.07.99,0,1.99.03,2.98.08,8.2-5.26,16.67-9.02,25.23-11.18,5.46-1.38,10.92-2.08,16.22-2.08,24.95,0,44.57,14.86,52.48,39.75.89,2.8,1.73,5.03,2.61,6.83,1.06-5.19,2.81-10.23,5.19-14.8,5.11-9.81,15.5-22.32,35.94-26.21,3.88-.74,7.88-1.11,11.9-1.11,2.9,0,5.74.19,8.5.57,1.25-.61,2.71-1.11,4.41-1.43l1.16-.22,26.34-2.69c.67-.08,1.44-.12,2.17-.12,7.26,0,13,4.52,14.29,11.25l.28,1.49.11,3.02c.44,12.62.86,24.53,2.47,32.97.64,3.38,1.35,5.54,1.93,6.88l4.73-35.44.05-.25c.55-2.95,1.98-5.49,3.99-7.37-4.01-6.53-5.72-14.49-4.21-22.58,2.84-15.25,16.12-26.32,31.6-26.32,1.98,0,3.98.19,5.94.55,17.37,3.23,28.87,20.06,25.62,37.52-1.26,6.77-4.59,12.71-9.27,17.22,1.73,2.66,2.43,5.89,1.95,8.97l-9.71,72.76-.1.54c-1.12,6.05-6.69,10.61-12.94,10.61-.36,0-.72-.01-1.08-.04l-.25-.02-30.26-4.08-.53-.1c-2.97-.55-5.52-2.08-7.38-4.22-1.69,1.02-3.32,1.51-4.56,1.75-.87.17-1.83.24-3.02.24s-9.79-.14-18.98-4.04c-6.47,4.07-13.61,6.91-20.96,8.31-3.62.69-7.33,1.04-11.01,1.04-20.15,0-38.08-10.09-47.81-25.58-1.13,1.81-2.06,3.28-2.06,3.28-2.6,3.92-5.78,6.31-9.74,7.31-1.27.32-2.92.48-4.9.48-8.08,0-17.25-2.5-25.25-8.58l.27.89.06.24c1.7,6.73-1.89,13.52-8.34,15.78l-.17.06-27.12,8.42-.56.14c-.99.25-2.01.38-3.04.38-2.13,0-4.17-.54-5.99-1.52-1.5,2.77-3.98,5-7.17,6.12l-.2.07-27.3,8.31-.53.13c-1,.25-2.02.38-3.05.38-5.49,0-10.44-3.6-12.33-8.97l-.07-.2-13.07-42.93c-8.45,25.57-34.28,37.08-57.03,37.08-5.1,0-9.99-.57-14.53-1.71-14.25-3.56-26.37-12-34.14-23.77-3.44-5.21-5.88-10.88-7.27-16.8-3.44,6.88-8.11,13.26-13.99,19.05-14.4,14.19-35.35,23.67-59,26.71-5.57.72-11.32,1.08-17.08,1.08-1.87,0-3.78-.04-5.66-.11l-.39-.02-.38-.04c-.54-.06-1.25-.07-2.01-.08h-.94s-.48-.07-.48-.07c-12.63-1.4-16.74-9.66-17.96-16.34l-9.46-51.68c-2.3,2.22-5.52,3.53-9.16,3.53-.41,0-.84-.02-1.27-.05.3.46.57.86.77,1.17,6.84,10.11,9.68,19.63,8.39,28.22-3.24,21.64-28.81,29.32-49.72,29.32-4.17,0-8.25-.3-12.13-.88l-1.63-.25c-3.99-.6-7.13-1.98-9.41-4.12-1.91,9-5.6,17.13-11,24.05-8.17,10.48-20,18.05-34.19,21.89-6.76,1.83-13.74,2.76-20.75,2.76ZM732.01,96.16c-4.07,0-5.53,5.36-5.68,5.97-.66,2.64.04,4.56.74,5.7.91,1.47,2.35,2.55,3.95,2.95.61.15,1.18.23,1.69.23,3.68,0,5.1-4.95,5.35-5.94,1.79-7.18-1.93-8.11-3.93-8.61-.78-.19-1.49-.29-2.13-.29ZM410.62,96.6c-.47,0-.96.07-1.47.21-4.1,1.11-3.43,5.31-2.96,7.07.07.27,1.86,6.7,5.58,6.7.57,0,1.23-.1,1.96-.3.47-.13,1.07-.41,1.66-.75-.92-3.9-1.96-7.98-3.09-12.19-.19-.41-.53-.74-1.68-.74ZM988.06,97.35c-.81.17-1.74.57-2.53,2.14-.78,1.54-1.07,3.67-.74,5.41.26,1.39,1.28,4.61,5.03,4.61.16,0,.31,0,.48-.02-.36-1.56-.69-3.12-.99-4.69-.45-2.37-.86-4.84-1.25-7.45ZM607.47,105.27c3.57-1.36,6.64-3.53,8.94-6.36,3.57-4.39,5.03-10.03,4.22-16.32-.6-4.69-3.64-20-17.42-20-1,0-2.07.07-3.17.21-.11.01-.22.03-.33.04l7.76,42.42ZM1604.02,168.92c-1.34,0-2.69-.18-4-.54-5.62-1.54-16.55-8.76-22.23-21.97l-.22.99-.07.24c-1.61,5.88-6.71,9.83-12.7,9.83-.78,0-1.57-.07-2.34-.21l-.35-.07-27.56-5.99-.54-.15c-3.14-.86-5.68-2.83-7.33-5.42-2.02,1.26-4.39,1.97-6.93,1.97-.78,0-1.56-.07-2.32-.21l-.21-.04-27.85-6.21-.52-.14c-3.99-1.09-7.02-4-8.46-7.67-1.33,1.81-2.79,3.57-4.37,5.28-9.7,10.49-23.41,18.11-36.66,20.38-3.35.57-6.76.87-10.13.87-20.11,0-37.47-9.96-47.04-25.71.08,1.49-.03,2.96-.34,4.38-.98,4.43-3.67,8.08-7.99,10.86l-.22.14c-11.22,6.78-23.72,10.37-36.14,10.37-4.68,0-9.34-.5-13.87-1.5-14.53-3.2-27.11-11.24-35.41-22.65-8.87-12.2-11.95-27.16-8.66-42.12,6.12-27.84,27.15-44.47,56.24-44.47,5.38,0,10.83.6,16.21,1.78,14.78,3.25,28.93,11.31,32.69,20.74,8.66-11.58,22.27-19.79,39.45-22.73,3.85-.66,7.67-.99,11.37-.99,27.52,0,46.46,18.63,52.87,38.96l8.44-37.82.15-.53c1.54-5.62,6.69-9.56,12.51-9.56.73,0,1.47.06,2.2.19l.24.04,7.75,1.71c1.11-.04,2.22-.06,3.32-.06,7.25,0,14.32.93,21,2.76,6.44,1.76,12.29,4.31,17.46,7.6,1.82-.1,3.62-.15,5.39-.15,7.75,0,15.18.96,22.07,2.85,31.24,8.56,47.81,35.34,41.23,66.62-1.8,8.63-1.5,12.59,1.24,16.3l.16.23c1.16,1.67,4.69,6.73,3.01,12.83-.94,3.43-3.27,6.32-6.46,8.04-.8.52-1.66,1-2.55,1.5-1.49.84-3.48,1.93-5.46,3.01-3.91,2.14-7.82,4.24-7.82,4.24l-.21.11c-2.79,1.42-5.43,2.11-8.07,2.11ZM1341.19,98.19c-1.95,0-4.37,0-5.66,5.9-1.24,5.65,2.83,7.43,5.36,7.99.93.2,1.93.31,2.99.31,3.79,0,8.07-1.32,12.4-3.81,1.52-.93,3.19-1.6,4.9-1.99-.21,0-.43.02-.65.02-.97,0-1.93-.11-2.87-.31-2.7-.59-5.25-2.15-7.17-4.39l-.17-.19-.16-.2c-.56-.66-3.09-2.3-6.3-3-.93-.21-1.83-.31-2.68-.31ZM1364.43,106.22c1.02,0,2.03.11,3.01.32,2.81.62,5.24,2.11,7.11,4.3-.51-4.79-.46-9.44.09-13.9l-1.73,2.6c-2.14,3.42-5.51,5.82-9.25,6.69.26-.01.52-.02.78-.02ZM1433.59,95.92c-.54,0-1.15.06-1.8.17-2.79.48-5.89,2.31-4.86,8.34.72,4.22,3.91,6.11,6.75,6.11.35,0,.69-.03,1.02-.09,2.27-.39,3.05-1.33,3.51-2.2.78-1.45,1.01-3.64.63-5.87-.74-4.29-2.5-6.46-5.26-6.46ZM1202.03,159.86c-7.69,0-36.7-10.83-37.86-43.31l-.04-1.03-.46,27.82c.04,6.81-5.55,12.7-12.39,12.94l-.55.02-30.45-.43h-.17c-6.95-.34-12.38-5.85-12.63-12.83v-.26s1.25-78.55,1.25-78.55v-.19c.38-6.8,5.88-12.31,12.53-12.55l.57-.02,15.83.28c6.04-1.39,11.76-2.17,17.44-2.37,1-.04,2.01-.05,3-.05,35.67,0,61.4,22.61,62.56,54.99l.18,4.95c.2,5.71,1.41,9.29,4.21,12.22,3.33-10.13,12.17-18.04,23.42-19.63,1.32-.19,2.67-.28,4-.28,14.25,0,26.51,10.69,28.51,24.88,1.07,7.6-.88,15.17-5.5,21.3-4.62,6.14-11.35,10.11-18.95,11.18-1.36.19-2.74.29-4.11.29-10.71,0-20.29-5.98-25.24-14.92-.75.7-1.55,1.34-2.35,1.98-1.38,1.11-3.23,2.57-5.07,4.01-3.17,2.49-6.35,4.94-7.11,5.53-3,2.5-6.53,3.89-10.22,4.02h-.18s-.23,0-.23,0Z"/>
      <path d="M101.08,20c.08,0,.16,0,.24,0l28,2.29,59.28,4.87c1.93.26,3.66,2.01,3.38,4.09l-2.36,27.38c-.25,1.86-1.86,3.39-3.84,3.39-.08,0-.16,0-.25,0l-23.64-2-7.09,85.62-.02.15c-.25,1.86-1.97,3.11-3.72,3.11-.06,0-.13,0-.19,0l-31.73-2.65-.3-.04c-1.93-.26-3.2-2.1-2.95-3.88l7.07-85.47-24.56-1.97c-2.08-.28-3.66-2.01-3.4-3.94l2.4-27.68.04-.3c.23-1.71,1.79-2.96,3.64-2.96M608.83,20.23c21.82,0,43.58,8.55,53.7,29.9,4.55,9.55,7.23,18.58,8.3,26.91,5.41,42.1-28.52,69.9-70.77,75.34-5.16.66-10.45,1-15.8,1-1.75,0-3.5-.04-5.26-.11-1.23-.15-2.44-.14-3.5-.16-5.06-.56-8.2-2.58-9.22-8.19l-19.82-108.3c-.25-1.93,1.01-3.91,2.94-4.16l23.63-4.4c7.41-3.52,16.02-5.99,24.79-7.12,3.63-.47,7.31-.71,10.99-.71M599.44,116.92c1.21,0,2.4-.16,3.59-.31,17.26-2.22,29.95-16.4,27.52-35.3-.31-2.39-3.83-28.72-27.34-28.72-1.41,0-2.89.09-4.45.29-3.57.46-7.21,1.53-10.52,2.86l11.19,61.17M1082.18,20.51c1.36,0,2.73.12,4.12.38,11.94,2.22,19.87,13.76,17.62,25.86-1.97,10.59-11.27,18.02-21.67,18.02-1.33,0-2.68-.12-4.03-.37-12.09-2.25-20.01-13.79-17.79-25.74,1.99-10.71,11.27-18.15,21.77-18.15M338.74,20.54c1.38,0,2.79.13,4.2.4,11.94,2.27,19.82,13.84,17.52,25.92-2,10.55-11.29,17.94-21.66,17.94-1.36,0-2.73-.13-4.12-.39-12.08-2.29-19.96-13.87-17.7-25.8,2.03-10.67,11.29-18.06,21.75-18.07M1509.5,48.99c.17,0,.35.01.52.04l8.8,1.95c1.41-.08,2.81-.11,4.19-.11,6.49,0,12.63.84,18.36,2.41,6.51,1.78,12.31,4.46,17.35,8.18,2.78-.25,5.5-.38,8.14-.38,7.04,0,13.54.88,19.43,2.49,25.46,6.98,39.72,28.15,34.09,54.92-2,9.56-2.35,17.09,2.98,24.3.67.96,2.01,2.88,1.57,4.47-.2.72-.73,1.51-1.79,2-.08.29-15.59,8.64-15.59,8.64-1.38.7-2.5,1.02-3.54,1.02-.46,0-.91-.06-1.35-.19-2.03-.56-23.51-11.26-17.43-40.24,3.56-15.82,2.11-22.44-5.82-25.86l-11.55,52.36c-.42,1.53-1.65,2.48-3.05,2.48-.19,0-.38-.02-.57-.05l-27.3-5.93-.29-.08c-1.45-.4-2.25-2.02-1.96-3.65l6.92-30.92c3.28-14.81,1.91-21.72-7.01-24.94l-11.79,53.22c-.42,1.53-1.65,2.48-3.05,2.48-.19,0-.38-.02-.57-.05l-27.41-6.11-.29-.08c-1.45-.4-2.25-2.02-1.96-3.65l17.01-76.21.08-.29c.38-1.4,1.58-2.22,2.87-2.22M444.87,53.78c1.95,0,3.51,1.38,4.02,3.27,6.6,25.56,13.59,51.95,15.26,74.81,2.37,32.3-16.54,50.31-39.12,56.42-5.92,1.6-12.06,2.41-18.14,2.41-2.54,0-5.08-.14-7.58-.43-1.42-.08-2.02-1.16-2.34-2.32-.23-.87-.32-1.78-.34-2.39l1.03-14.58c.07-2.04,1.39-3.48,2.98-3.91.29-.08.62-.01.91-.09,4.18-.04,7.78-.55,10.96-1.41,12.16-3.29,17.38-12.16,17.72-24.68-4.1,2.66-8.78,4.86-13.42,6.12-3.68.99-7.44,1.48-11.17,1.48-18.78,0-37.13-12.33-43.21-34.79-4.74-17.52-.07-41.62,30.48-49.89,4.67-1.26,9.37-1.9,13.87-1.9,2.19,0,4.34.15,6.41.46,0-1.71,1.23-2.35,2.53-2.71l.72-.2s24.18-4.83,27.55-5.59c.3-.06.59-.09.88-.09M411.77,120.57c1.41,0,2.93-.2,4.57-.64,3.47-.94,7.68-3.78,9.49-6.29l.61-.63c-1.28-5.87-2.86-12.28-4.62-18.8-1.89-5.2-6.36-7.61-11.19-7.61-1.35,0-2.72.19-4.08.55-9.12,2.47-12.19,11.22-10,19.33,1.33,4.92,5.7,14.09,15.23,14.09M876.25,56.29c19.74,0,36.19,11.51,42.95,32.78,2.97,9.31,6.37,16.03,14.56,19.68,1.06.51,3.17,1.52,3.57,3.12.18.73.11,1.67-.58,2.62.07.29-9.31,15.19-9.31,15.19-1.23,1.86-2.39,2.77-3.85,3.14-.32.08-1.19.18-2.45.18-6.76,0-24.97-2.85-32.54-26.61-4.34-14.35-8.53-19.75-15.92-19.75-.6,0-1.23.04-1.88.11l15.73,51.26c.44,1.74-.39,3.35-1.96,3.9l-26.68,8.29-.29.07c-.2.05-.4.08-.6.08-1.25,0-2.42-.94-2.89-2.29l-9.2-30.32c-3.94-12.87-8-18.52-15.4-18.52-.94,0-1.93.09-2.98.27l15.95,52.13c.44,1.74-.39,3.35-1.95,3.9l-26.86,8.18-.29.07c-.2.05-.4.08-.6.08-1.25,0-2.42-.94-2.89-2.29l-22.74-74.7-.07-.29c-.4-1.6.47-3.06,1.88-3.57l8.62-2.64c6.79-4.35,13.77-7.35,20.75-9.11,4.59-1.16,9.09-1.76,13.51-1.76,1.89,0,3.76.11,5.62.33,8.43-5.84,16.89-9.68,25.04-11.74,4.71-1.19,9.32-1.77,13.77-1.77M1026.96,56.86c3.01,0,4.16,1.54,4.46,3.12l.14.74c.49,13.8.87,27.01,2.72,36.74,1.68,8.84,4.51,14.87,9.7,16.48,1.61.46,3.4,1.03,3.68,2.51.06.29,0,.76-.19,1.41l-5.74,19.57c-.85,2.76-2.07,4.36-3.99,4.73-.21.04-.6.07-1.15.07-3.33,0-12.31-.96-19.77-5.7-6.91,5.44-14.53,8.72-22.04,10.15-3.06.58-6.12.86-9.14.86-21.32,0-40.83-13.95-44.79-34.73-3.37-17.68,4.31-45.56,33.48-51.11,3.36-.64,6.75-.94,10.04-.94,3.92,0,7.7.42,11.08,1.19.69-1.2,1.93-1.89,3.7-2.23l.74-.14,25.91-2.64c.41-.05.8-.07,1.16-.07M989.83,119.5c1.09,0,2.22-.11,3.39-.33,2.8-.53,5.93-1.74,9.04-3.86-1.17-3.75-2.25-7.82-3.12-12.39-.73-3.83-1.34-7.84-1.89-12.31-1.86-2.09-5.04-3.34-8.42-3.34-.84,0-1.7.08-2.55.24-9.28,1.77-12.73,11.74-11.3,19.25,1.38,7.24,7.01,12.74,14.85,12.74M270.84,57.1c1.17,0,2.41.17,3.56.35l18.34,2.42c4.39.47,5.4,2.2,5.54,4.3.05.75-.04,1.66-.14,2.41-6.96,59.52-14.63,75.8-23.73,76.84l-11.34,1.34-1.05.07c-.27.02-.52.03-.77.03-1.96,0-3.31-.58-4.48-2.24-1.02-1.74-8.38-17.95-11.2-24.38-.52-1.15-.83-1.44-.99-1.44,0,0,0,0,0,0-.3.02-.39.93-.5,1.54-1.06,6.83-3.4,21.71-4.35,25.68-.33,1.83-2.61,3.78-5.15,4.09l-14.77,1.71-.75.05c-.25.02-.49.02-.74.02-2.45,0-4.85-.84-6.25-3.48l-34.88-65.08c-.51-.87-1.18-2.03-1.26-3.22-.09-1.35.72-2.75,3.65-3.99l21.39-8.6c1.03-.37,1.92-.58,2.67-.62.13,0,.26-.01.39-.01,1.88,0,3.16.92,3.81,2.15l17.35,31.19c.32.54.61.69.89.69.02,0,.04,0,.06,0,.3-.02.72-.5.81-1.4.27-5.13.47-15.96.53-17.32.09-3.31,1.67-4.32,5.25-4.85l17.16-1.86.75-.05c.17-.01.34-.02.5-.02,1.82,0,3.07.72,4.03,2.73l5.06,17.71c.18.43.51,1,.8,1,0,0,0,0,.01,0,.45-.03.68-1.1,5.31-34.01.42-2.73,1.87-3.58,3.82-3.71.22-.01.45-.02.67-.02M1435.53,57.95c26.64,0,41.76,20.41,44.72,37.64,4.94,28.83-21.57,49.96-42.56,53.56-2.82.48-5.65.72-8.45.72-21.04,0-40.31-13.46-44.24-36.43-5.22-30.46,14.84-50.18,40.86-54.64,3.38-.58,6.6-.85,9.68-.85M1433.68,120.53c.91,0,1.81-.08,2.71-.23,10.5-1.8,13.76-11.19,12.31-19.61-.44-2.58-3.05-14.77-15.12-14.77-1.09,0-2.25.1-3.49.31-12.42,2.13-14.17,13.23-13.03,19.88,1.56,9.11,9.03,14.42,16.61,14.42M729.08,58.09c4.82,0,9.74.62,14.64,1.85,32.16,8.04,39.69,36.66,34.97,55.58-5.81,23.27-28.91,33.29-48.43,33.29-4.28,0-8.39-.48-12.1-1.41-23.72-5.93-40.24-28.3-33.84-53.91,6.06-24.24,24.41-35.4,44.76-35.4M732.71,121c8.01,0,13.27-6.38,15.05-13.52.69-2.76,3.64-17.02-11.21-20.73-1.62-.41-3.14-.59-4.55-.59-9.21,0-13.96,7.87-15.38,13.54-2.51,10.04,3.68,18.7,11.97,20.77,1.44.36,2.82.53,4.12.53M1335.81,59.15c4.75,0,9.5.54,14.07,1.55,16.26,3.58,26.56,12.6,25.76,16.26-.06.29-.16.73-.37.99l-10.78,16.21c-.84,1.41-2.4,2.43-3.95,2.43-.24,0-.48-.02-.72-.08-.59-.13-1.25-.58-1.74-1.15-2.15-2.78-6.93-5.52-12.05-6.64-1.05-.23-2.79-.54-4.83-.54-5.38,0-12.89,2.17-15.43,13.75-2.16,9.81,3.46,17.81,12.98,19.9,1.61.35,3.33.54,5.14.54,5.26,0,11.26-1.58,17.55-5.23.84-.54,1.94-.93,3.01-.93.29,0,.58.03.86.09,1.03.23,2.07,1.07,2.71,3.05,1.54,5.56,2.72,8.58,4,13.93.25.97.31,2.06.09,3.09-.39,1.76-1.47,3.21-3.62,4.58-10.25,6.19-20.91,8.93-30.97,8.93-4.03,0-7.95-.44-11.72-1.27-24.32-5.35-42.12-27.07-36.45-52.86,5.85-26.61,26.13-36.61,46.47-36.61M1158.11,59.32c29.16,0,51.57,17.55,52.57,45.35l.18,4.95c.3,8.39,2.49,15.07,8.84,20.54.93.72,2.48,2.16,2.54,3.81.03.9-.39,1.82-1.41,2.6.01.3-14.45,11.47-14.45,11.47-1.46,1.25-2.94,1.76-4.29,1.81-.02,0-.04,0-.06,0-2.96,0-26.92-7.17-27.87-33.67l-.18-5.1c-.56-15.74-8.45-22.06-19.41-22.27l-.9,54.52c.05,1.5-1.25,2.9-2.75,2.95h-.3s-30.03-.41-30.03-.41c-1.8-.09-3.05-1.39-3.12-3.19l1.25-78.09c.09-1.65,1.39-3.05,2.89-3.1h.3s16.82.29,16.82.29c5.8-1.41,11.33-2.21,16.72-2.4.88-.03,1.77-.05,2.64-.05M518.18,61.78c3.56,0,7.08.26,10.42.76,5.79.87,7.18,1.68,7.82,4.51l4.09,18.21c.21.64.14,1.08.07,1.53-.19,1.3-1.32,1.78-2.74,1.78-.37,0-.75-.03-1.15-.09l-.59-.09c-1.71-.26-3.23-.37-4.58-.37-5.67,0-8.26,2.06-8.62,4.46-.38,2.52,1.42,5.67,6.13,12.75,5.71,8.44,7.68,15.56,6.83,21.2-2.18,14.53-21.84,20.8-39.83,20.8-3.67,0-7.28-.26-10.65-.77l-1.63-.25c-3.26-.49-4.66-1.3-5.17-3.96l-3.95-18.18c-.08-.47-.16-.93-.12-1.23.24-1.57,1.8-1.96,3.32-1.96.64,0,1.27.07,1.8.15,1.16.15,2.26.23,3.28.23,6.69,0,10.34-3.06,10.8-6.15.29-1.93-1.28-4.59-2.96-7.57l-3.34-5.05c-5.41-8.4-7.13-15.17-6.28-20.81,2.08-13.88,19.93-19.88,37.04-19.88M320.27,65.85c.13,0,.26,0,.4.02l29.75,4.12.29.06c1.47.28,2.55,1.86,2.27,3.33l-9.97,72.61-.06.29c-.26,1.39-1.69,2.43-3.11,2.43-.08,0-.17,0-.25-.01l-29.75-4.12-.29-.06c-1.62-.31-2.55-1.86-2.39-3.51l9.94-72.46c.31-1.64,1.56-2.7,3.17-2.7M1063.81,65.89c.13,0,.25,0,.38.02l29.77,4.01.3.05c1.47.27,2.55,1.85,2.28,3.32l-9.7,72.65-.05.29c-.26,1.4-1.68,2.44-3.11,2.44-.08,0-.16,0-.24-.01l-29.77-4.01-.3-.05c-1.62-.3-2.56-1.85-2.4-3.5l9.67-72.5c.31-1.64,1.56-2.72,3.17-2.72M1252.48,111.56c9.21,0,17.28,6.9,18.61,16.27,1.45,10.25-5.7,19.74-15.94,21.19-.91.13-1.82.19-2.71.19-9.29,0-17.31-6.76-18.63-16.11-1.45-10.25,5.67-19.89,16.07-21.35.87-.12,1.74-.18,2.6-.18M101.08,0h0c-11.8,0-21.89,8.71-23.46,20.27l-.04.29-.07.49-.04.49-2.37,27.42c-1.32,12.54,7.79,24.01,20.61,25.75l.54.07.55.04,4.57.37-5.39,65.19c-.6,5.81.97,11.59,4.48,16.34,3.74,5.07,9.46,8.47,15.69,9.31l.29.04.52.07.52.04,31.73,2.65.3.03.3.02c.42.02.83.03,1.25.03,11.84,0,21.95-8.78,23.53-20.41l.02-.15.07-.52.04-.52,2.02-24.43,17.68,32.98c4.69,8.8,13.62,14.06,23.89,14.06.67,0,1.35-.02,2.03-.07l.75-.05.5-.03.5-.06,14.77-1.71h.08s.08-.02.08-.02c4.94-.61,9.49-2.58,13.2-5.49,3.33,1.57,7.05,2.38,11.01,2.38.67,0,1.37-.02,2.07-.07l1.04-.07.52-.03.52-.06,11.32-1.33c6.51-.76,11.64-3.48,15.69-7.04,3.29,4,7.94,6.88,13.4,7.92l.29.06.49.09.5.07,29.75,4.12.49.07.5.04c.66.06,1.34.09,2.01.09,10.68,0,19.93-7.25,22.47-17.41,4.99,4.68,10.67,8.52,16.84,11.38-.82,2.23-1.31,4.62-1.45,7.1l-1.01,14.36-.06.9.02.91c.03,1.68.24,4.3,1.03,7.21,2.58,9.54,10.27,16.14,19.71,17.01,3.13.34,6.33.52,9.52.52,7.88,0,15.74-1.04,23.36-3.11,16.31-4.41,29.96-13.19,39.47-25.4,3.91-5.01,7.05-10.53,9.41-16.48.53.11,1.08.2,1.64.28l1.63.24c4.37.66,8.95.99,13.62.99,12.45,0,24.56-2.4,34.12-6.75,6.72-3.06,12.27-7.08,16.49-11.88,2.57,13.91,12.29,22.81,26.68,24.4l.95.11h.96s.48.02.48.02c.35,0,.83,0,1.03.02l.69.08.77.03c2.02.08,4.06.12,6.07.12,6.18,0,12.36-.39,18.35-1.16,25.8-3.32,48.8-13.8,64.74-29.51,1.75-1.72,3.4-3.5,4.96-5.32.3.49.61.97.93,1.45,9.15,13.86,23.38,23.79,40.06,27.96,5.33,1.33,11.03,2.01,16.95,2.01,14.1,0,28.2-3.84,39.71-10.81,5.48-3.32,10.28-7.25,14.34-11.72l6.42,21.09.12.41.14.4c3.29,9.36,12.04,15.65,21.76,15.65,1.85,0,3.71-.23,5.5-.68l.28-.07.47-.12.46-.14,26.86-8.18.41-.12.4-.14c2.75-.97,5.21-2.4,7.3-4.18.84.09,1.68.14,2.54.14,1.85,0,3.71-.23,5.5-.68l.28-.07.52-.13.52-.16,26.68-8.29.34-.11.34-.12c5.65-1.98,10.06-5.91,12.7-10.82,7.22,2.57,13.55,3.04,17.25,3.04,4.22,0,6.57-.59,7.35-.79,3.39-.86,6.46-2.35,9.19-4.46,12.04,12.25,29.19,19.76,47.96,19.76,4.31,0,8.64-.41,12.88-1.22,6.94-1.32,13.71-3.74,20.03-7.12,8.73,2.83,16.14,3.03,18.04,3.03s3.4-.13,4.9-.42c.29-.05.6-.12.94-.2,2.2,1.27,4.64,2.18,7.27,2.67l.29.05.49.09.5.07,29.77,4.01.51.07.51.04c.63.05,1.27.08,1.9.08,8.14,0,15.43-4.19,19.58-10.68,4.02,4.58,9.82,7.53,16.4,7.85l.33.02h.33s30.03.43,30.03.43h.5s.5-.01.5-.01h.3c8.14-.3,15.15-4.84,18.96-11.42,10.7,10.39,24,14.99,31.43,14.99.3,0,.59,0,.86-.02,5.84-.23,11.36-2.37,16.02-6.2.91-.71,3.75-2.9,6.66-5.18.5.47,1,.94,1.53,1.38,7.04,6.05,16.04,9.38,25.33,9.38,1.83,0,3.68-.13,5.5-.39,12.55-1.77,22.86-9.4,28.54-19.74,9.3,9.43,21.43,16.08,35.01,19.07,5.23,1.15,10.62,1.73,16.02,1.73,14.24,0,28.53-4.08,41.31-11.81l.22-.13.22-.14c2.28-1.46,4.15-3.04,5.7-4.67,11.54,10.52,27.06,16.72,44.28,16.72,3.94,0,7.92-.34,11.82-1.01,14.11-2.42,28.61-10.02,39.52-20.6,1.72,1.02,3.6,1.83,5.62,2.39l.29.08.46.13.47.1,27.41,6.11.42.09.42.08c1.35.24,2.72.36,4.08.36,1.46,0,2.89-.14,4.29-.41,2.15,1.56,4.6,2.76,7.31,3.5l.29.08.52.14.53.11,27.3,5.93.35.08.35.06c1.36.24,2.74.37,4.12.37,4.44,0,8.65-1.29,12.25-3.56,6.68,7.71,14.81,12.6,20.32,14.11,2.18.6,4.41.9,6.64.9,4.26,0,8.38-1.04,12.61-3.19l.21-.11.2-.11s3.93-2.12,7.87-4.27c2.33-1.27,4.2-2.3,5.57-3.07.83-.47,1.76-.99,2.72-1.59,5.43-3.03,9.4-8.05,11.04-14.03,1.93-7.04.43-14.17-4.45-21.18l-.16-.23-.17-.23c-.31-.42-.96-1.3.51-8.33,3.82-18.17,1.03-35.36-8.08-49.7-8.84-13.91-22.77-23.8-40.3-28.6-7.76-2.13-16.07-3.2-24.72-3.2-.93,0-1.86.01-2.8.04-5.29-3.02-11.12-5.41-17.4-7.13-7.55-2.07-15.5-3.12-23.65-3.12-.79,0-1.58,0-2.38.03l-6.28-1.39-.48-.11-.48-.08c-1.28-.22-2.58-.33-3.88-.33-10.32,0-19.43,6.96-22.16,16.94l-.08.29-.13.46-.1.47-2.79,12.51c-1.13-1.28-2.31-2.52-3.54-3.71-12.14-11.78-27.76-18-45.17-18h0c-4.26,0-8.65.38-13.06,1.14-14.29,2.45-27.11,8.43-37.02,17.15-1.41-1.27-3.01-2.55-4.82-3.81-5.15-3.61-13.93-8.5-26.47-11.25-6.09-1.34-12.26-2.02-18.36-2.02h0c-33.62,0-58.91,20.05-66.01,52.32-.28,1.29-.53,2.58-.73,3.88-5.06-2.43-10.7-3.78-16.59-3.78-1.8,0-3.61.13-5.4.38-6.15.87-11.87,3.14-16.82,6.59-1.9-16.76-9.75-31.63-22.45-42.29-13.01-10.92-30.66-16.93-49.69-16.93v20-20c-1.12,0-2.25.02-3.36.06-5.94.21-11.88.98-18.11,2.35l-12.37-.22c-.53-19.45-14.51-36.59-34.33-40.28-2.56-.48-5.18-.72-7.77-.72h0c-20.29,0-37.71,14.51-41.43,34.49-.34,1.81-.55,3.63-.65,5.44-3.79-2.29-8.29-3.58-13.13-3.58-1.07,0-2.16.06-3.26.18l-25.83,2.63-.86.09-.85.16-.74.14c-1.35.26-2.65.6-3.9,1.03-2.34-.23-4.73-.34-7.14-.34-4.65,0-9.28.43-13.77,1.29-16.61,3.16-30.35,12.07-39.33,25.35-11.67-19.52-31.62-31.1-55.02-31.1-6.13,0-12.41.8-18.67,2.38-8.67,2.19-17.23,5.81-25.51,10.8-.08,0-.17,0-.25,0-5.98,0-12.18.8-18.41,2.37-8.34,2.11-16.46,5.51-24.18,10.13l-3.82,1.17c-9-10.97-21.7-18.83-36.85-22.61-6.5-1.62-13.05-2.45-19.49-2.45h0c-14.81,0-28.51,4.33-39.61,12.52-1.32.98-2.6,2-3.84,3.08-1.42-4.04-3.11-8.1-5.04-12.16-6.6-13.91-17.47-25.05-31.43-32.16-11.72-5.97-25.66-9.13-40.32-9.13v20V.23c-4.49,0-9.04.29-13.55.87-9.9,1.27-19.62,3.94-28.31,7.74l-20.92,3.89c-12.4,2.03-21.06,13.71-19.43,26.43l.07.53.1.52.36,1.99c-2.96-.29-5.96-.44-8.99-.44-21.08,0-38.1,6.63-47.95,17.87-.41-1.6-.83-3.2-1.24-4.8l-.72-2.8-.03-.11-.03-.11c-2.87-10.63-12.47-18.05-23.33-18.05-1.63,0-3.28.17-4.89.5l-.19.04-.19.04c-2.29.51-17.82,3.64-27.08,5.49l-.66.13-.64.17-.72.2c-1.5.4-2.92.93-4.25,1.56-6.12.05-12.37.92-18.56,2.6-2.48.67-4.82,1.42-7.04,2.24,2.07-21.44-12.5-41.36-33.99-45.44-2.61-.5-5.28-.75-7.93-.75h0c-20.21,0-37.62,14.44-41.4,34.33-.34,1.78-.56,3.57-.67,5.35-.5-.08-1-.15-1.52-.21l-17.93-2.36c-1.81-.28-3.97-.55-6.38-.55-.66,0-1.32.02-1.97.06-10.28.67-18.27,6.97-21.31,16.44l-17.01,1.85-.39.04-.39.06c-1.73.26-3.34.62-4.85,1.08-3.16-5.32-8.23-9.14-14.12-10.81l1.08-12.56c1.34-12.63-7.77-24.17-20.59-25.91l-.53-.07-.53-.04-59.28-4.87L102.96.07l-.23-.02h-.23c-.47-.04-.95-.05-1.42-.05h0Z"/>
    </g>
  </g>
  <g id="face">
    <path d="M1086.76,39.84c-.27,1.85,1.07,3.6,2.93,3.87,1.86.22,3.6-1.07,3.82-2.93.27-1.85-1.02-3.59-2.93-3.87-1.8-.26-3.53,1.03-3.82,2.93"/>
    <path d="M1072.54,37.91c-.22,1.86,1.02,3.59,2.93,3.87,1.86.22,3.6-1.07,3.87-2.93.27-1.85-1.07-3.6-2.93-3.87s-3.59,1.02-3.87,2.93"/>
    <path d="M1086.02,47.98c-4.68,2.58-7.6-.55-7.95-.94-.84-.93-2.25-1.08-3.23-.25-.93.84-1.08,2.25-.25,3.23,1.9,2.29,7.15,5.53,13.64,2.01,1.13-.64,1.5-2.01.92-3.13-.64-1.13-2.01-1.5-3.13-.92"/>
  </g>
</svg>